<svg xmlns="http://www.w3.org/2000/svg" viewBox="0 0 460 300"><defs><style>.cls-1{fill:#2e3f4e;}.cls-2{fill:#fff;opacity:0.85;}</style></defs><g id="Calque_2" data-name="Calque 2"><g id="ARTWORK"><path class="cls-1" d="M441.6,0H18.4C8.24,0,0,7.46,0,16.67V283.33C0,292.54,8.24,300,18.4,300H441.6c10.16,0,18.4-7.46,18.4-16.67V16.67C460,7.46,451.76,0,441.6,0ZM424.12,287.5H35.88V12.5H424.12Z"/><path class="cls-2" d="M430.79,144.17c.84,3.65-2.82,16.07,4.6,15.83,4-.76,17.75,2.56,17.48-4.17-.84-3.65,2.82-16.07-4.6-15.83C444.23,140.76,430.52,137.44,430.79,144.17Z"/><path class="cls-1" d="M432.63,144.17c.85,2.26-2.33,14.48,2.76,14.16,2.49-.77,16,2.11,15.64-2.5-.85-2.26,2.32-14.48-2.76-14.16C445.78,142.44,432.28,139.56,432.63,144.17Z"/><path class="cls-2" d="M18.4,147.08a2.93,2.93,0,1,1,0,5.84A2.93,2.93,0,1,1,18.4,147.08Z"/><path class="cls-1" d="M18.4,148.33a1.67,1.67,0,1,1,0,3.34A1.67,1.67,0,1,1,18.4,148.33Z"/></g></g></svg>