<svg xmlns="http://www.w3.org/2000/svg" viewBox="0 0 208 429.18"><defs><style>.cls-1{fill:#2e3f4e;fill-rule:evenodd;}</style></defs><g id="Calque_2" data-name="Calque 2"><g id="Layer_1" data-name="Layer 1"><path class="cls-1" d="M28.78,0H179.22A28.86,28.86,0,0,1,208,28.78V400.39a28.87,28.87,0,0,1-28.78,28.79H28.78A28.87,28.87,0,0,1,0,400.39V28.78A28.86,28.86,0,0,1,28.78,0ZM67.11,32.84a6.1,6.1,0,1,0-6.1-6.1A6.11,6.11,0,0,0,67.11,32.84Zm0-2.24a3.87,3.87,0,1,0-3.87-3.86A3.86,3.86,0,0,0,67.11,30.6Zm14.07-4.77v1.4a4.08,4.08,0,0,0,4.06,4.06h37.52a4.08,4.08,0,0,0,4.06-4.06v-1.4a4.08,4.08,0,0,0-4.06-4.07H85.24A4.08,4.08,0,0,0,81.18,25.83Zm2.23.7h0a2.54,2.54,0,0,0,2.53,2.53h36.12a2.54,2.54,0,0,0,2.53-2.53h0A2.54,2.54,0,0,0,122.06,24H85.94A2.54,2.54,0,0,0,83.41,26.53ZM10.82,379.28H197.74v-330H10.82ZM104,418.37a16.88,16.88,0,1,0-16.88-16.88A16.91,16.91,0,0,0,104,418.37Zm0-3.6a13.29,13.29,0,1,0-13.28-13.28A13.3,13.3,0,0,0,104,414.77Z"/></g></g></svg>