<svg xmlns="http://www.w3.org/2000/svg" viewBox="0 0 200 332"><defs><style>.cls-1{fill:#f6f6f6;}.cls-2{fill:#fdfdfd;}.cls-3{fill:#e9e9e9;}.cls-4{fill:#fafafa;}.cls-5{fill:#8a59d3;}.cls-6{fill:gray;}.cls-7{fill:#f0f0f0;}.cls-8{fill:#eaeaea;}.cls-9{fill:#eee8f7;}.cls-10{fill:#0d0d0d;}.cls-11{fill:#f2f2f2;}.cls-12{fill:#020202;}.cls-13{fill:#010101;}.cls-14{fill:#040404;}.cls-15{fill:#090909;}.cls-16{fill:#080808;}.cls-17{fill:#070707;}.cls-18{fill:#0b0b0b;}.cls-19{fill:#050505;}.cls-20{fill:#060606;}.cls-21{fill:#0a0a0a;}.cls-22{fill:#0c0c0c;}.cls-23{fill:#0e0e0e;}.cls-24{fill:#131313;}.cls-25{fill:#141414;}.cls-26{fill:#0f0f0f;}.cls-27{fill:#1f1f1f;}.cls-28{fill:#2b2b2b;}.cls-29{fill:#161616;}.cls-30{fill:#2a2a2a;}.cls-31{fill:#1e1e1e;}.cls-32{fill:#101010;}.cls-33{fill:#030303;}.cls-34{fill:#f4f4f4;}.cls-35{fill:#f1f1f1;}.cls-36{fill:#ededed;}.cls-37{fill:#eee;}.cls-38{fill:#efefef;}.cls-39{fill:#f5f5f5;}.cls-40{fill:#e8e8e8;}.cls-41{fill:#f3f3f3;}.cls-42{fill:#f9f9f9;}.cls-43{fill:#e6e6e6;}.cls-44{fill:#e5e5e5;}.cls-45{fill:#e7e7e7;}.cls-46{fill:#dbdbdb;}.cls-47{fill:#ed80d4;}.cls-48{fill:#e9e7e8;}.cls-49{fill:#e57dd4;}.cls-50{fill:#e3e3e3;}.cls-51{fill:#dd7ad4;}.cls-52{fill:#d7d7d7;}.cls-53{fill:#d676d4;}.cls-54{fill:#d878d4;}.cls-55{fill:#cbcacb;}.cls-56{fill:#d175d4;}.cls-57{fill:#d1d1d1;}.cls-58{fill:#ca72d4;}.cls-59{fill:#c971d4;}.cls-60{fill:#c06ed4;}.cls-61{fill:#bf6ed4;}.cls-62{fill:#d5d4d5;}.cls-63{fill:#d5d5d5;}.cls-64{fill:#a362d3;}.cls-65{fill:#c871d4;}.cls-66{fill:#a563d3;}.cls-67{fill:#b66ad3;}.cls-68{fill:#f9f3fa;}.cls-69{fill:#ad66d4;}.cls-70{fill:#efdef4;}.cls-71{fill:#b76ad3;}.cls-72{fill:#cf74d4;}.cls-73{fill:#925bd3;}.cls-74{fill:#9c60d3;}.cls-75{fill:#b86bd4;}.cls-76{fill:#c972d4;}.cls-77{fill:#f9f5fb;}.cls-78{fill:#fbf8fc;}.cls-79{fill:#faf8fc;}.cls-80{fill:#bf73d6;}.cls-81{fill:#ac66d4;}.cls-82{fill:#b36dd5;}.cls-83{fill:#fbf9fc;}.cls-84{fill:#fcfafc;}.cls-85{fill:#faf7fb;}.cls-86{fill:#ba6ed4;}.cls-87{fill:#b36bd4;}.cls-88{fill:#bd72d6;}.cls-89{fill:#b26cd5;}.cls-90{fill:#ac67d4;}.cls-91{fill:#f2e6f6;}.cls-92{fill:#ba6fd5;}.cls-93{fill:#f7f1fa;}.cls-94{fill:#faf6fb;}.cls-95{fill:#b36ed6;}.cls-96{fill:#bb75d7;}.cls-97{fill:#b86cd4;}.cls-98{fill:#af69d4;}.cls-99{fill:#ad67d4;}.cls-100{fill:#ad68d4;}.cls-101{fill:#b06bd5;}.cls-102{fill:#b774d7;}.cls-103{fill:#c17cd8;}.cls-104{fill:#bc6fd4;}.cls-105{fill:#c36fd4;}.cls-106{fill:#b86dd4;}.cls-107{fill:#c371d5;}.cls-108{fill:#c16fd4;}.cls-109{fill:#c373d5;}.cls-110{fill:#be6fd4;}.cls-111{fill:#b56cd5;}.cls-112{fill:#ba6dd4;}.cls-113{fill:#bc73d6;}.cls-114{fill:#b971d5;}.cls-115{fill:#bc70d5;}.cls-116{fill:#b86ed5;}.cls-117{fill:#b470d6;}.cls-118{fill:#b46fd6;}.cls-119{fill:#c076d6;}.cls-120{fill:#b76dd4;}.cls-121{fill:#c074d6;}.cls-122{fill:#bb6fd5;}</style></defs><g id="Calque_2" data-name="Calque 2"><g id="Calque_1-2" data-name="Calque 1"><path class="cls-1" d="M0,240.16V72.73a2,2,0,0,1,1.36-.43c.48,0,1,0,1.45,0H197a4.27,4.27,0,0,1,2.7.38,3.19,3.19,0,0,1,.12,1.44V238.72c0,1.74-.1,1.84-1.86,1.88-.36,0-.71,0-1.06,0H2.84C1.89,240.59.88,240.83,0,240.16Z"/><path class="cls-2" d="M0,240.16H197.79c1.92,0,1.92,0,1.92-1.92V72.72a3.42,3.42,0,0,1-.43-2.42q0-18.3,0-36.6c0-2.45,0-2.46-2.5-2.46q-97,0-193.92,0c-1,0-2,.24-2.82-.43C0,20.85,0,10.91,0,1,0,.19.14,0,1,0Q100,0,199,0c.86,0,1,.23,1,1q0,165,0,330c0,.79-.16,1-.95.95-1-.09-2,0-3.05,0a6,6,0,0,1-.67-2.93,29.45,29.45,0,0,0-3-10.68A20.64,20.64,0,0,0,176,307a40.16,40.16,0,0,0-5-.32H28.12A24.83,24.83,0,0,0,14,310.79l-.11.08c-4.3,3.64-7.46,8-8.26,13.72a3,3,0,0,1-.48,1.2,6.63,6.63,0,0,0-.84,5,1.53,1.53,0,0,1,0,1.15c-1.24,0-2.47,0-3.71,0-.46,0-.62-.08-.54-.54a3.74,3.74,0,0,0,0-.67Z"/><path class="cls-3" d="M0,30.8H197.75c2.21,0,2-.24,2,2V72.72H0Z"/><path class="cls-1" d="M189.9,332H105.31a1.23,1.23,0,0,0-1.59,0H74.55a1.24,1.24,0,0,0-1.6,0H40.87a2.45,2.45,0,0,1-.41-1.76c0-2,0-4,0-5.95,0-1.59-.58-2.15-2.15-2.21-1.37-.06-2.73-.05-4.1,0-1.78.06-2.17.46-2.19,2.22,0,2,0,4,0,5.95a2.44,2.44,0,0,1-.4,1.76H16.73a1.65,1.65,0,0,1,0-1.16,6.59,6.59,0,0,0-5.8-8.05,1.81,1.81,0,0,1-.76-.22c-.48-1.78.34-3.37.69-4.73-1.08,1.35-1.37,3.36-2.29,5.1-.48.26-1,.83-1.49.08.45-3.74,2.42-6.75,4.85-9.4a20,20,0,0,1,11.16-6.22,13.68,13.68,0,0,1,2.63-.23q74.25,0,148.48,0c6.18,0,11.08,2.95,14.93,7.67A21.25,21.25,0,0,1,193.78,328c0,.67.2,1.32.22,2a2.75,2.75,0,0,1-.39,2h-1.06a3.41,3.41,0,0,1-.87-2.56c.2-4.65-.44-6.55-2.27-10.82.59,1.26.52,2.64.82,4,.14,2.6.09,5.2.09,7.81A2.24,2.24,0,0,1,189.9,332Z"/><path class="cls-4" d="M193.61,332c-.08-3.74-.24-7.47-1.53-11a19.86,19.86,0,0,0-9.79-11.24,19.05,19.05,0,0,0-9-2.17q-73.68.06-147.35,0a18.14,18.14,0,0,0-9,2.61,20.67,20.67,0,0,0-8.6,9.69c-.51,1.09-.45,2.34-1.12,3.36a2,2,0,0,1-1.87,1.55c-.39-.93.31-1.67.43-2.5.38-2.69,1.88-4.75,3.35-6.92,3.74-5.53,9.12-8,15.51-8.89a33.53,33.53,0,0,1,4.47-.21q71.85,0,143.7,0A21.45,21.45,0,0,1,188,312a20.74,20.74,0,0,1,6,9.18A44.05,44.05,0,0,1,196,332Z"/><path class="cls-5" d="M5.32,324.76l1.87-1.55,1.33-.56c.5-.28,1-.79,1.6-.28a6.93,6.93,0,0,1,6.61,9.6H11.17c-.67-1-.25-2.13-.36-3.2-.07-.65,0-.66-.56-.92a4.53,4.53,0,0,1,.12,4.12H4.27A7.23,7.23,0,0,1,5.32,324.76Z"/><path class="cls-6" d="M31.59,332c0-2.86-.06-5.73-.06-8.59,0-1.17.76-1.66,1.79-1.69,1.89-.06,3.79-.07,5.68,0,1.24,0,1.84.77,1.85,2.09,0,2.73,0,5.47,0,8.2Z"/><path class="cls-7" d="M189.9,322.15c-.33-1.39-.67-2.77-1-4.16,0-.15,0-.41.12-.46s.41.06.51.27a23.58,23.58,0,0,1,2.61,9.81,16.71,16.71,0,0,0,.39,4.36h-1.32c-.54-.64-.37-1.42-.4-2.15A35.36,35.36,0,0,0,189.9,322.15Z"/><path class="cls-8" d="M189.9,322.15c1.06.87.79,2.19,1,3.3a31.55,31.55,0,0,1,.31,6.52H189.9Z"/><path class="cls-9" d="M10.37,332c0-.83-.07-1.67,0-2.49.08-1,0-1.68-1.44-.93a1.75,1.75,0,0,1,1.87-1.21c.59,0,.27.79.29,1.22.07,1.13.06,2.27.09,3.41Z"/><path class="cls-10" d="M103.72,332c0-.63.43-.61.88-.62s.78.06.71.62Z"/><path class="cls-10" d="M73,332c0-.63.44-.61.89-.62s.77.06.71.62Z"/><path class="cls-11" d="M99.83,220.26c-13.07,0-26.15,0-39.23,0-3.91,0-7.77-.6-11.13-2.74-5-3.19-8-7.66-8.34-13.73a17.35,17.35,0,0,1,14.32-18.52,33.07,33.07,0,0,1,6.29-.56c25.89,0,51.77,0,77.66,0,5.24,0,10.19,1.26,14,5.12,3,3.07,5.08,6.71,5.21,11.21.08,2.93,0,5.8-1.34,8.52-2.69,5.51-6.92,9-13,10.14a33.17,33.17,0,0,1-6.3.55C125.28,220.24,112.56,220.26,99.83,220.26Z"/><path class="cls-12" d="M109.36,105.85V103.6c0-1.15,1.06-1.84,1.93-1.1.43.37.51.29.87.09a2.13,2.13,0,0,1,2.79.21c.38.39.49.18.79,0,1.9-1.23,3.51-.5,3.75,1.76.14,1.35,0,2.73.08,4.1,0,1-.7.66-1.19.69s-1.09.22-1.06-.69c.05-1.24,0-2.48,0-3.71,0-.52-.1-1-.77-1s-1,.29-1,1c0,1.19-.06,2.39,0,3.58s-.61.82-1.19.85-1.13.08-1.07-.84c.07-1.19,0-2.39,0-3.58,0-.52-.09-1-.76-1a.89.89,0,0,0-1,1c0,1.19-.06,2.39,0,3.58s-.6.82-1.19.85-1.14.07-1.07-.85S109.36,106.74,109.36,105.85Z"/><path class="cls-13" d="M43.58,109.21c-1.79.49-2.88,0-3.33-1.7a5.66,5.66,0,0,0-.59-1.18c-.25-.45-.68-.35-1.06-.29s-.33.45-.34.75a7.27,7.27,0,0,0,0,1.32c.19,1.1-.33,1.3-1.3,1.26-.74,0-1-.2-1-1q.08-3.76,0-7.55c0-.74.19-1,1-1a30.69,30.69,0,0,1,3.83.18,2.58,2.58,0,0,1,2.34,1.85,2.68,2.68,0,0,1-.88,3.1c-.64.44-.48.76-.21,1.25C42.57,107.22,43.06,108.2,43.58,109.21Z"/><path class="cls-13" d="M150.26,109c-2.57.9-3.83.1-4.21-2.52a4.92,4.92,0,0,1,.48-3.07,1.86,1.86,0,0,1,1.91-1.18,11.11,11.11,0,0,0,3.45.1c.6-.06.58.37.58.79,0,2.69,0,5.38,0,8.07,0,1-.55.82-1.11.8s-1.21.26-1.13-.75C150.31,110.57,150.26,109.86,150.26,109Z"/><path class="cls-13" d="M100.74,106.51c.67,1.44,1.64,1.55,2.6.94s1,.12,1.31.52c.4.58-.21.76-.55,1a4.2,4.2,0,0,1-5-.65c-1-.85-1.08-3.27-.25-4.58a3.92,3.92,0,0,1,4.24-1.28,3.29,3.29,0,0,1,2,3.51c0,.61-.36.59-.78.59C103.19,106.5,102.06,106.51,100.74,106.51Z"/><path class="cls-13" d="M100.54,124.31a3.63,3.63,0,1,1-.05-7.25c2.08,0,3.45,1.44,3.44,3.68A3.25,3.25,0,0,1,100.54,124.31Z"/><path class="cls-13" d="M71.84,120.77a3.24,3.24,0,0,1-3.42,3.54,3.33,3.33,0,0,1-3.37-3.62,3.37,3.37,0,0,1,3.52-3.63C70.57,117.11,71.87,118.58,71.84,120.77Z"/><path class="cls-13" d="M46.5,106.51c.56,1.3,1.27,1.66,2.39,1,.78-.47,1-.07,1.35.4.5.68-.19.83-.54,1a3.93,3.93,0,0,1-4.55-.48,4.17,4.17,0,0,1-.38-4.8,3.32,3.32,0,0,1,4-1.24,3.39,3.39,0,0,1,2,3.66c-.12.55-.48.42-.79.42C48.83,106.52,47.73,106.51,46.5,106.51Z"/><path class="cls-13" d="M60.43,106.51c.71,1.5,1.69,1.51,2.71.88.72-.44.81.17,1.12.46.46.44.08.69-.23.94a4,4,0,0,1-4.69-.2,4.2,4.2,0,0,1-.63-4.79A3.29,3.29,0,0,1,64.79,106c-.09.54-.4.48-.75.48Z"/><path class="cls-13" d="M79.68,106.51c.48,1.27,1.24,1.67,2.33,1,.86-.53,1.14,0,1.43.48s-.33.81-.68,1a3.94,3.94,0,0,1-4.53-.61,4.23,4.23,0,0,1-.33-4.71,3.32,3.32,0,0,1,3.71-1.35,3.28,3.28,0,0,1,2.27,3.72c-.1.56-.44.45-.77.45Z"/><path class="cls-13" d="M122.82,106.51c.68,1.33,1.35,1.64,2.49,1,.81-.49,1,0,1.33.46.43.59-.16.75-.5,1a3.93,3.93,0,0,1-4.65-.47,4.2,4.2,0,0,1-.32-4.81,3.36,3.36,0,0,1,4-1.19,3.45,3.45,0,0,1,1.93,3.7c-.14.54-.52.36-.83.37C125.16,106.52,124.06,106.51,122.82,106.51Z"/><path class="cls-13" d="M125,121.37c.6,1.31,1.3,1.65,2.42,1,.8-.48,1,0,1.34.42.48.68-.21.84-.56,1a3.93,3.93,0,0,1-4.55-.5,4.17,4.17,0,0,1-.35-4.8,3.32,3.32,0,0,1,4-1.23,3.41,3.41,0,0,1,2,3.67c-.13.56-.49.41-.81.41C127.31,121.38,126.21,121.37,125,121.37Z"/><path class="cls-13" d="M127.87,105.82v-2.26c0-1.12,1.11-1.8,1.94-1.06.43.4.51.26.84.09,1.9-.94,3.36-.13,3.52,2,.09,1.15-.09,2.31.07,3.44.18,1.34-.49,1.4-1.5,1.36-.6,0-.73-.24-.72-.78,0-1.15,0-2.3,0-3.45,0-.68-.17-1.25-1-1.21s-1,.57-1,1.28c0,1,0,2,0,2.92,0,.8,0,1.25-1.06,1.27s-1.2-.48-1.14-1.33S127.87,106.57,127.87,105.82Z"/><path class="cls-13" d="M104.8,120.69v-2.25c0-1.14,1.1-1.84,1.92-1.08.51.47.62.18,1,0a2.19,2.19,0,0,1,3.41,1.91c.11,1.4,0,2.82.06,4.23,0,1.06-.72.61-1.19.67s-1.06.15-1-.73c.06-1.19,0-2.38,0-3.58,0-.64-.24-1.13-1-1.09s-1,.43-1,1.14c0,1,0,2.12,0,3.17.05.82-.12,1.15-1,1.14s-1.26-.22-1.16-1.17A21,21,0,0,0,104.8,120.69Z"/><path class="cls-13" d="M130,120.71v-2.25c0-1.16,1.06-1.86,1.91-1.11.5.44.59.22.95.05,1.7-.84,3.21-.11,3.39,1.73.15,1.49.07,3,.08,4.51,0,1-.74.5-1.16.54s-1,.31-1-.57c0-1.19,0-2.38,0-3.58,0-.66-.12-1.27-1-1.24s-1,.52-1,1.25c0,1.1,0,2.21,0,3.31.07.89-.4.9-1,.86s-1.28.21-1.18-.85C130.06,122.48,130,121.59,130,120.71Z"/><path d="M79.05,120.75v2.12c0,1.28-.74,1.91-1.79,1.24-.61-.39-.81-.13-1.22,0a2.21,2.21,0,0,1-3.21-1.86,41.94,41.94,0,0,1-.11-4.49c0-.93.74-.52,1.18-.56s1-.24,1,.6c0,1.19,0,2.39,0,3.58,0,.59,0,1.2.87,1.2s1.14-.47,1.11-1.28c0-1.1,0-2.21,0-3.31-.06-.94.52-.83,1.09-.81s1.19-.24,1.12.76S79.05,119.82,79.05,120.75Z"/><path d="M141.9,105.83a13.62,13.62,0,0,0,0,2.12c.22,1.34-.51,1.73-1.51,1.34a2.58,2.58,0,0,0-1.86,0,2.07,2.07,0,0,1-2.86-1.86c-.17-1.48-.09-3-.13-4.49,0-.93.68-.6,1.13-.63s1.11-.22,1.07.69c0,1.06,0,2.12,0,3.18,0,.67-.16,1.53.94,1.52s1.06-.72,1-1.49c0-1.06,0-2.12,0-3.17s.66-.71,1.15-.73,1.1-.22,1,.7S141.9,104.91,141.9,105.83Z"/><path d="M159.94,105.89V108c0,1.28-.74,1.91-1.8,1.24-.6-.38-.81-.13-1.22,0a2.21,2.21,0,0,1-3.21-1.85,42.07,42.07,0,0,1-.11-4.49c0-.94.74-.53,1.18-.57s1-.24,1,.6c0,1.19,0,2.38,0,3.58,0,.58.05,1.2.87,1.21s1.14-.48,1.11-1.29c0-1.06.06-2.12,0-3.17s.37-1,1.09-1,1.23-.1,1.12.9A26,26,0,0,0,159.94,105.89Z"/><path class="cls-13" d="M54.6,109.44a3.33,3.33,0,0,1-2.33-.73c-.42-.38-1.06-1-.68-1.4a1.38,1.38,0,0,1,2,.17,1.3,1.3,0,0,0,1.26.52.61.61,0,0,0,.62-.57c0-.33-.2-.48-.45-.57-.66-.23-1.35-.41-2-.67a1.78,1.78,0,0,1-1.29-1.79A2,2,0,0,1,53,102.56a3.81,3.81,0,0,1,3.55.17,1.79,1.79,0,0,1,1,1.48.25.25,0,0,1-.33.29c-.61-.12-1.34.34-1.82-.33a.9.9,0,0,0-.86-.47c-.31,0-.65.09-.72.47a.57.57,0,0,0,.44.7c.47.14.93.29,1.4.41,1.11.29,2,.83,1.93,2.14,0,1-.92,1.77-2.3,2Z"/><path class="cls-13" d="M84.9,119.36c-.55,0-1,.08-1.29-.49s-.66-.35-1.06-.23a.5.5,0,0,0-.38.6c0,.44.45.5.77.62.62.21,1.27.34,1.88.59A1.76,1.76,0,0,1,86,122.22a1.86,1.86,0,0,1-1.13,1.66,4,4,0,0,1-4.23-.37c-.39-.38-1-.94-.57-1.4a1.6,1.6,0,0,1,1.84.07c.22.15.32.53.63.62.48.13,1.05.21,1.28-.34s-.33-.73-.73-.87a16.58,16.58,0,0,1-2-.7,1.8,1.8,0,0,1-.39-3,3.71,3.71,0,0,1,4.72.08c.3.33.63.73.48,1.17S85.18,119.27,84.9,119.36Z"/><path class="cls-13" d="M87.61,104H86c-.56,0-1.11.15-1.11-.8s.4-.9,1-.89c1.23,0,2.47,0,3.71,0,.35,0,.85-.22,1,.3a1.35,1.35,0,0,1-.27,1.25c-.65.83-1.29,1.67-1.91,2.53a2,2,0,0,0-.65,1.24c.7,0,1.4,0,2.08,0s.83.28.85.91-.27.79-.85.78c-1.28,0-2.56,0-3.84,0-.41,0-1,.28-1.19-.21a1.55,1.55,0,0,1,.35-1.6c.85-1.06,1.65-2.17,2.47-3.26C87.71,104.24,87.66,104.18,87.61,104Z"/><path class="cls-13" d="M92.15,120.72a5.12,5.12,0,0,0,.32,1.45c.33.6.9.61,1.46.19.24-.18.18-.64.6-.63s1.23-.26,1.51.14-.09,1.08-.47,1.5a3.22,3.22,0,0,1-3.43.78,2.92,2.92,0,0,1-2.09-2.78,3.62,3.62,0,0,1,1.39-3.77,3.27,3.27,0,0,1,3.51-.07,2,2,0,0,1,1,1.17c.11.35.54,1,0,1.13s-1.35.4-1.7-.17-.67-1.08-1.4-.78S92.31,120,92.15,120.72Z"/><path class="cls-13" d="M73.81,106.25c.26-1,.51-2,.77-3a1.73,1.73,0,0,1,2.21-.83c.3.21.15.47.08.7-.6,1.88-1.25,3.75-1.82,5.64-.22.74-.75.64-1.25.59s-1.14.32-1.4-.56c-.63-2.1-1.34-4.17-2-6.27,2.18-.37,2.18-.37,2.7,1.66l.51,2Z"/><path class="cls-13" d="M111.74,117.34c2.19-.29,2.19-.29,2.66,1.6.19.72.38,1.44.59,2.28a12.56,12.56,0,0,0,1-3.18,1.81,1.81,0,0,1,2.25-.76c.23.19.12.41.06.6-.63,2-1.25,3.93-1.92,5.89-.26.78-1,.36-1.49.42s-.86.15-1.06-.48C113.14,121.59,112.44,119.47,111.74,117.34Z"/><path class="cls-13" d="M57.89,117.3c2.23-.18,2.23-.18,2.71,1.72.17.68.34,1.36.56,2.22a13,13,0,0,0,1-3.16,1.76,1.76,0,0,1,2.22-.82c.3.21.15.47.08.7-.61,1.88-1.25,3.75-1.82,5.64-.23.74-.76.64-1.26.59s-1.13.32-1.39-.56C59.31,121.53,58.59,119.45,57.89,117.3Z"/><path class="cls-13" d="M138.79,115.5c.9-.16,1.4,0,1.25.89-.08.47,0,.87.66.83s.45.43.44.76.13.72-.35.68c-.85-.06-.77.48-.76,1,0,.71,0,1.41,0,2.12,0,.45.11.82.64.8.84,0,.57.58.61,1,.06.58-.37.58-.77.64-1.74.25-2.58-.43-2.64-2.2,0-.75,0-1.5,0-2.25,0-.49.17-1-.64-1.2-.54-.14-.44-1.15-.09-1.25.82-.23.77-.72.74-1.29C137.8,115.06,138.59,115.64,138.79,115.5Z"/><path class="cls-13" d="M97.35,104.42c0,1.32-.08,2.65,0,4,.09,1.06-.49.94-1.18,1s-1.06-.13-1-1c.06-2.68.07-5.37,0-8.05,0-.94.43-.94,1.12-.94s1.15,0,1.09,1C97.28,101.69,97.35,103.06,97.35,104.42Z"/><path class="cls-14" d="M65.6,105.77a18.76,18.76,0,0,0,0-2.25c-.14-1.08.41-1.41,1.28-1.14a2.39,2.39,0,0,0,2.19-.13.49.49,0,0,1,.78.51c-.09.52.43,1.46-.46,1.48-1.49,0-1.64.84-1.56,2,.05.61,0,1.24,0,1.85.14,1-.27,1.36-1.3,1.3-.73,0-1-.21-1-1S65.6,106.65,65.6,105.77Z"/><path d="M163.65,105.77a12.87,12.87,0,0,0,0,2.24c.22,1.33-.47,1.41-1.48,1.36-.61,0-.73-.24-.72-.78,0-1.81.06-3.62,0-5.43,0-.94.52-.83,1.09-.81s1.19-.22,1.11.77S163.65,104.88,163.65,105.77Z"/><path d="M121.48,120.87c0,.7,0,1.41,0,2.12s0,1.25-1,1.27-1.17-.46-1.14-1.32c0-1.59.09-3.18,0-4.76-.08-1.08.52-.93,1.2-1,.84-.07,1.07.23,1,1S121.48,120,121.48,120.87Z"/><path class="cls-15" d="M27.53,153.82a12.31,12.31,0,0,0,0-1.72c-.15-1.12.3-1.45,1.38-1.35s2.22.36,2.69,1.55a3.5,3.5,0,0,1-.35,3.63c-.84,1.09-2.1.92-3.28.91-.48,0-.42-.35-.42-.65C27.52,155.4,27.53,154.61,27.53,153.82Z"/><path class="cls-16" d="M72.23,152.64V151c0-.28,0-.54.39-.56s.38.27.38.54c0,1.76,0,3.53,0,5.3,0,.2,0,.58-.26.48-1-.41-2.19.69-3-.54a2.83,2.83,0,0,1-.13-3.13C70.2,152.11,71.15,152.13,72.23,152.64Z"/><path class="cls-17" d="M100.81,166.1c0,.61,0,1.1,0,1.58,0,.23-.07.44-.37.43a.38.38,0,0,1-.4-.41c0-1.81,0-3.62,0-5.44a.43.43,0,0,1,.16-.3,4.82,4.82,0,0,1,3.15.48,3.22,3.22,0,0,1-.17,3.58C102.48,166.67,101.72,166.46,100.81,166.1Z"/><path class="cls-16" d="M133.22,152.59V151c0-.28,0-.54.39-.56s.38.27.38.54c0,1.76,0,3.53,0,5.3,0,.2,0,.58-.26.48-1-.41-2.19.69-3-.54a2.87,2.87,0,0,1-.13-3.14C131.2,152.1,132.16,152.18,133.22,152.59Z"/><path class="cls-15" d="M155,156.65c-.4.67.25,1.83-.51,1.8s-.34-1.14-.39-1.75c-.09-1.19,0-2.38,0-3.57,0-.51,0-1.09.74-.56a.46.46,0,0,0,.37,0,1.59,1.59,0,0,1,2.29.6,2.86,2.86,0,0,1-.05,3C156.79,157.13,155.87,157,155,156.65Z"/><path class="cls-18" d="M115.28,155.4c0,.26,0,.61.07,1s0,.57-.25.45c-.76-.37-1.46.18-2.19.06a1.3,1.3,0,0,1-1.16-1.1,1.26,1.26,0,0,1,.66-1.33,2.64,2.64,0,0,1,1.13-.3c.32,0,.78.18.91-.28a.9.9,0,0,0-.25-.7c-.29-.33-.67-.26-1.09-.13s-.51.81-1.07.53a.34.34,0,0,1-.1-.33,1.62,1.62,0,0,1,1.36-.9,1.53,1.53,0,0,1,2,1.53C115.32,154.34,115.28,154.83,115.28,155.4Z"/><path class="cls-18" d="M103.35,155.47c0,.16,0,.51.06.86,0,.2,0,.59-.21.47-.81-.39-1.55.24-2.32,0a1.27,1.27,0,0,1-1-1,1.18,1.18,0,0,1,.62-1.33,8.13,8.13,0,0,1,1-.31c.37-.13,1,.27,1.09-.39a.72.72,0,0,0-.32-.68,1,1,0,0,0-1.23,0c-.31.15-.6.83-.91.34s.36-.82.76-1a1.66,1.66,0,0,1,2.52,1.48C103.39,154.39,103.35,154.83,103.35,155.47Z"/><path class="cls-17" d="M108.24,164.9c.73,1.7-.8,1.34-1.76,1.5s-1.54-.07-1.71-1,.45-1.4,1.31-1.65c.45-.14,1.11.34,1.34-.42a.58.58,0,0,0-.32-.67,1.08,1.08,0,0,0-1.5.34c-.22.24-.5.3-.68.08s.07-.47.24-.65a2,2,0,0,1,2.09-.46,1.4,1.4,0,0,1,1,1.54C108.23,163.89,108.24,164.29,108.24,164.9Z"/><path class="cls-19" d="M35.29,156.89a2.44,2.44,0,0,1-2.46-1.84,2.53,2.53,0,0,1,1.57-2.67,1.93,1.93,0,0,1,2.45,2c0,.37-.23.43-.51.44a9.67,9.67,0,0,0-1.32,0c-.39.06-1.13-.37-1.07.46s.61,1,1.33,1l.12,0c.43,0,.66-.68,1.15-.3a.34.34,0,0,1,0,.34A1.54,1.54,0,0,1,35.29,156.89Z"/><path class="cls-17" d="M167.68,154.59a2,2,0,0,1-2.09,2.29,2.3,2.3,0,0,1-.17-4.58A2.07,2.07,0,0,1,167.68,154.59Z"/><path class="cls-16" d="M78.58,164.14a2,2,0,0,1-2,2.3,2.31,2.31,0,1,1,2-2.3Z"/><path class="cls-20" d="M62.89,161.86A1.53,1.53,0,0,1,64.37,163c.27.79.34,1.53-.9,1.35a2.15,2.15,0,0,0-.67,0c-.4.07-.92-.26-1.19.22-.16.3.11.6.31.82a1.11,1.11,0,0,0,1.32.35,6.38,6.38,0,0,0,.57-.32.33.33,0,0,1,.47,0c.22.26,0,.41-.15.54a2,2,0,0,1-1.76.38,2.13,2.13,0,0,1-1.61-2.51A2,2,0,0,1,62.89,161.86Z"/><path class="cls-19" d="M90.9,166.45a1.9,1.9,0,0,1-2.08-1.63A2.42,2.42,0,0,1,90,162a1.9,1.9,0,0,1,2.58,1.9c0,.35-.18.45-.48.46-.48,0-1,0-1.45,0s-.91-.27-1,.31a1,1,0,0,0,.93,1.11,3.45,3.45,0,0,0,.77-.07c.33,0,.69-.78.94-.13.18.47-.46.64-.86.79A2.15,2.15,0,0,1,90.9,166.45Z"/><path class="cls-19" d="M138.22,156.88a1.94,1.94,0,0,1-2-2,2.21,2.21,0,0,1,1.57-2.55,1.9,1.9,0,0,1,2.21,2c0,.47-.3.46-.61.47s-.88,0-1.32,0-.9-.26-1,.32.37,1,.92,1.11a2.25,2.25,0,0,0,.52,0c.43,0,.66-.65,1.16-.33a.35.35,0,0,1,0,.33A1.62,1.62,0,0,1,138.22,156.88Z"/><path class="cls-20" d="M58.36,154.63a2.09,2.09,0,0,1,1.87-2.32A1.68,1.68,0,0,1,62.09,154c.1.59,0,.94-.72.86a3.14,3.14,0,0,0-1.06,0c-.38.09-1.14-.4-1.07.43a1.15,1.15,0,0,0,1.33,1c.13,0,.25-.1.38-.1.34,0,.73-.78.95-.14s-.52.71-1,.81A2.05,2.05,0,0,1,58.36,154.63Z"/><path class="cls-20" d="M74,154.6a2.06,2.06,0,0,1,1.89-2.29A1.69,1.69,0,0,1,77.74,154c.11.63-.08.92-.75.84a3.54,3.54,0,0,0-.92,0c-.41.06-.91-.26-1.2.22-.15.24.07.51.23.71a1.29,1.29,0,0,0,1.27.52c.42,0,.65-.71,1.15-.32a.31.31,0,0,1,0,.32,1.68,1.68,0,0,1-1.4.63A2,2,0,0,1,74,154.6Z"/><path class="cls-20" d="M87.8,154.6a2.06,2.06,0,0,1,1.89-2.29A1.69,1.69,0,0,1,91.53,154c.11.63-.08.92-.75.84a3.54,3.54,0,0,0-.92,0c-.41.06-.91-.25-1.2.22-.15.24.07.5.23.71a1.29,1.29,0,0,0,1.27.52c.42,0,.65-.71,1.15-.32a.31.31,0,0,1,0,.32,1.68,1.68,0,0,1-1.4.63A2,2,0,0,1,87.8,154.6Z"/><path class="cls-20" d="M149.32,154.6a2.06,2.06,0,0,1,1.89-2.29,1.71,1.71,0,0,1,1.85,1.66c.1.63-.08.92-.75.84a3.62,3.62,0,0,0-.93,0c-.4.06-.91-.26-1.2.22-.15.24.08.51.23.71a1.3,1.3,0,0,0,1.28.52c.41,0,.65-.71,1.15-.32a.33.33,0,0,1,0,.32,1.67,1.67,0,0,1-1.39.63A2,2,0,0,1,149.32,154.6Z"/><path class="cls-20" d="M54.12,164.15A2.07,2.07,0,0,1,56,161.86a1.71,1.71,0,0,1,1.85,1.66c.1.63-.08.92-.76.84a3.54,3.54,0,0,0-.92,0c-.41.06-.91-.25-1.2.22-.15.24.07.51.23.72a1.28,1.28,0,0,0,1.27.51c.42,0,.65-.7,1.15-.32a.33.33,0,0,1,0,.33,1.69,1.69,0,0,1-1.39.62A2,2,0,0,1,54.12,164.15Z"/><path class="cls-17" d="M136.65,166.44a2.1,2.1,0,0,1-2.06-2.37,2,2,0,0,1,1.95-2.21,2.11,2.11,0,0,1,2.15,2.31A2.07,2.07,0,0,1,136.65,166.44Z"/><path class="cls-21" d="M79.52,164.06v-.13c0-2,.37-2.28,2.3-2.07A1.18,1.18,0,0,1,83,162.94c.09,1,.06,2,.07,3,0,.24-.06.42-.36.43s-.43-.21-.43-.5c0-.75,0-1.5,0-2.25,0-.59-.12-1.12-.8-1.13a1,1,0,0,0-1.16,1.13c0,.75,0,1.5,0,2.25,0,.3-.11.5-.46.48s-.31-.25-.31-.47Z"/><path class="cls-17" d="M46.13,154.7A2,2,0,0,1,44,156.88a2.08,2.08,0,0,1-2-2.32,2,2,0,0,1,2-2.25A2.11,2.11,0,0,1,46.13,154.7Z"/><path class="cls-21" d="M114.52,164v-.13c0-1.88.46-2.28,2.32-2a1.1,1.1,0,0,1,1,.72,12.36,12.36,0,0,1,.17,3.54c0,.19-.16.26-.36.27-.38,0-.41-.24-.41-.53,0-.74,0-1.49,0-2.24,0-.6-.14-1.12-.81-1.11a1,1,0,0,0-1.14,1.16c0,.7,0,1.4,0,2.11,0,.26,0,.55-.34.59s-.42-.33-.43-.63Z"/><path class="cls-17" d="M123,164.35a2,2,0,0,1-2.2,2.08,2.12,2.12,0,0,1-1.86-2.55,2,2,0,0,1,2.11-2A2.15,2.15,0,0,1,123,164.35Z"/><path class="cls-22" d="M168.71,154.52c0-2.24.11-2.35,2.25-2.22a1.12,1.12,0,0,1,1.13.76,11.93,11.93,0,0,1,.16,3.43c0,.26-.18.37-.44.33s-.3-.27-.3-.49c0-.75,0-1.5,0-2.25,0-.56-.14-1.15-.83-1.12a1.07,1.07,0,0,0-1.16,1.16c0,.75,0,1.5,0,2.25,0,.22,0,.45-.31.47s-.48-.14-.48-.46Z"/><path class="cls-22" d="M84.11,164.12c0-2.19,0-2.19,2.08-2.26a1.17,1.17,0,0,1,1.34.83,14,14,0,0,1,.14,3.3.35.35,0,0,1-.41.39c-.29,0-.35-.21-.35-.45,0-.75,0-1.5,0-2.25,0-.6-.12-1.23-.91-1.16a1.08,1.08,0,0,0-1.09,1.23c0,.71,0,1.42,0,2.12,0,.27,0,.55-.39.53s-.39-.28-.39-.55C84.12,165.27,84.12,164.7,84.11,164.12Z"/><path class="cls-22" d="M116.47,154.57c0-2.2,0-2.19,2.07-2.27a1.17,1.17,0,0,1,1.34.84,13.49,13.49,0,0,1,.14,3.3.35.35,0,0,1-.41.39c-.28,0-.34-.21-.35-.45,0-.75,0-1.5,0-2.25,0-.6-.12-1.23-.91-1.16a1.08,1.08,0,0,0-1.09,1.23c0,.71,0,1.42,0,2.12,0,.27,0,.55-.4.52s-.39-.27-.39-.55Z"/><path class="cls-22" d="M141.66,164c0-.4,0-.8,0-1.2,0-.57-.15-1.43.86-.59,0,0,.2-.07.31-.1,1.84-.54,2.33-.2,2.39,1.67,0,.62,0,1.24,0,1.86,0,.28.1.68-.37.7s-.39-.37-.39-.67c0-.53,0-1.06,0-1.59s.18-1.59-.87-1.59-1.22.7-1.14,1.58a4.74,4.74,0,0,1,0,1.19c-.07.37.34,1-.34,1.06s-.35-.73-.42-1.13A5.92,5.92,0,0,1,141.66,164Z"/><path class="cls-16" d="M132.09,166.46a3,3,0,0,1-1-.21c-.42-.22-1.06-.64-.79-1.05s.68.1,1,.37a1.07,1.07,0,0,0,1.24.14c.27-.12.45-.3.39-.6-.09-.49-.51-.55-.9-.64-.13,0-.25-.1-.38-.13-.68-.18-1.27-.47-1.23-1.31a1.2,1.2,0,0,1,1.11-1.13,1.77,1.77,0,0,1,2,.68c.11.17.27.39,0,.57a.47.47,0,0,1-.6-.05c-.17-.14-.26-.36-.44-.47a.82.82,0,0,0-1.25.27c-.28.57.26.72.7.84l.63.2c.69.21,1.22.58,1.1,1.4S132.89,166.37,132.09,166.46Z"/><path class="cls-16" d="M80.44,156.89a2,2,0,0,1-1.28-.35c-.28-.26-.79-.57-.52-.92s.63,0,.9.33a1.06,1.06,0,0,0,1.34.19c.27-.13.43-.32.35-.62-.16-.6-.75-.55-1.18-.7-.64-.22-1.29-.4-1.32-1.24a1.16,1.16,0,0,1,1-1.21,1.82,1.82,0,0,1,2,.57c.15.2.37.47.06.67a.62.62,0,0,1-.59-.09,1.24,1.24,0,0,0-.56-.53.84.84,0,0,0-1.13.38c-.22.51.23.67.62.8l.63.19c.74.21,1.34.56,1.19,1.46S81.15,156.84,80.44,156.89Z"/><path class="cls-16" d="M125.4,161.86a2.19,2.19,0,0,1,1.33.26c.34.24.76.62.55.93s-.62,0-.9-.27a.9.9,0,0,0-1.21-.15.49.49,0,0,0-.31.52c.09.48.52.52.9.63a5.14,5.14,0,0,1,1,.37,1.07,1.07,0,0,1,.63,1.07,1.14,1.14,0,0,1-.82,1.09,2.24,2.24,0,0,1-1.81-.07c-.41-.2-1-.63-.77-1.05s.69.12,1,.39a1.07,1.07,0,0,0,1.23.12c.28-.12.45-.3.38-.6-.1-.49-.52-.54-.91-.64-.12,0-.24-.09-.37-.13-.74-.19-1.37-.53-1.19-1.43A1.25,1.25,0,0,1,125.4,161.86Z"/><path class="cls-16" d="M94.14,152.3a1.53,1.53,0,0,1,1.12.33c.28.25.73.57.39.94s-.57,0-.82-.33a.89.89,0,0,0-1.2-.17c-.22.11-.37.28-.33.5.07.49.5.55.89.65a5.76,5.76,0,0,1,1,.36,1.11,1.11,0,0,1,.64,1.2,1.07,1.07,0,0,1-.79,1,2.09,2.09,0,0,1-2.42-.53c-.15-.17-.44-.42-.13-.66a.44.44,0,0,1,.67.16,1,1,0,0,0,1,.56c.39,0,.84-.08.91-.58s-.26-.61-.64-.71l-.76-.23c-.69-.2-1.24-.56-1.09-1.39S93.39,152.33,94.14,152.3Z"/><path class="cls-18" d="M63.8,156.23a5.68,5.68,0,0,1,1.06,0c.5.12,1.41-.39,1.41.34,0,.55-1,.24-1.47.24s-1.55.37-1.84-.18.57-1.16.92-1.74.81-1.11,1.25-1.7a4.06,4.06,0,0,0-1.78-.2c-.23,0-.45-.06-.46-.35s.24-.31.46-.31h2.38c.77,0,.66.4.35.83C65.39,154.12,64.67,155.06,63.8,156.23Z"/><path class="cls-16" d="M51.15,161.86a2.35,2.35,0,0,1,1.48.27c.34.24.74.67.54.94-.31.42-.65,0-.92-.3a.9.9,0,0,0-1.2-.14c-.22.11-.39.26-.34.5.09.49.51.55.89.63l.26.07c.68.22,1.39.46,1.43,1.33a1.14,1.14,0,0,1-.91,1.16,2.1,2.1,0,0,1-2.31-.51c-.17-.18-.38-.44-.15-.68a.42.42,0,0,1,.67.13,1,1,0,0,0,.7.54c.49.06,1.05,0,1.19-.53s-.33-.64-.73-.76l-.62-.19c-.69-.19-1.31-.53-1.19-1.33A1.3,1.3,0,0,1,51.15,161.86Z"/><path class="cls-16" d="M95,166.43a1.69,1.69,0,0,1-1.11-.35c-.28-.25-.76-.54-.44-.93s.57,0,.81.32a1,1,0,0,0,1.31.25c.2-.09.41-.18.45-.44a.53.53,0,0,0-.37-.62c-.4-.17-.85-.24-1.25-.41-.6-.25-1.14-.64-.92-1.38a1.78,1.78,0,0,1,3.21,0c.16.46-.27.43-.44.35s-.43-.41-.68-.57a.86.86,0,0,0-1.27.27c-.3.57.27.71.68.85l.63.19c.74.22,1.36.61,1.16,1.48S95.87,166.45,95,166.43Z"/><path class="cls-16" d="M148.06,161.85a1.88,1.88,0,0,1,1,.23c.38.25.85.64.6,1s-.64,0-.91-.33a.92.92,0,0,0-1.21-.1c-.22.11-.37.27-.31.51.11.48.54.51.92.61a5.8,5.8,0,0,1,1,.37,1.12,1.12,0,0,1,.68,1.05,1.19,1.19,0,0,1-.82,1.1,2.23,2.23,0,0,1-1.79,0c-.44-.2-1.07-.63-.81-1,.37-.57.67.11,1,.37a1.07,1.07,0,0,0,1.23.11c.25-.11.49-.26.42-.58-.1-.47-.52-.55-.9-.65-.17,0-.33-.11-.5-.16-.69-.2-1.3-.54-1.15-1.35S147.27,161.86,148.06,161.85Z"/><path class="cls-16" d="M125.58,156.88a1.9,1.9,0,0,1-1.08-.26c-.33-.26-.91-.57-.61-1s.62.08.89.35a1.08,1.08,0,0,0,1.34.15c.21-.1.4-.24.38-.49-.06-.56-.54-.62-1-.73-.09,0-.16-.07-.25-.09-.67-.16-1.31-.41-1.37-1.21a1.18,1.18,0,0,1,1-1.22,1.8,1.8,0,0,1,2,.51c.14.19.39.45.16.67a.43.43,0,0,1-.68-.11,1,1,0,0,0-.85-.54c-.34,0-.75.09-.87.48s.23.61.56.74.51.14.76.22c.73.22,1.37.58,1.21,1.45S126.41,156.88,125.58,156.88Z"/><path class="cls-19" d="M50.52,154.66v.26c0,1.79-.56,2.24-2.36,2a1.23,1.23,0,0,1-1.1-1.14c-.09-1-.06-1.94-.08-2.91,0-.31.12-.5.47-.47s.31.25.31.47c0,.75,0,1.5,0,2.25s.13,1.21.9,1.17a1,1,0,0,0,1.1-1.21c0-.7,0-1.41,0-2.12,0-.26,0-.56.39-.55s.35.32.36.58Z"/><path class="cls-21" d="M140.36,156.73c1.83-1.45,1.67-2.87.14-4.3,1.36-.31,1.25.91,1.83,1.34.77-.18.54-1.69,1.94-1.33-1.54,1.45-1.52,2.9.09,4.28-1.41.42-1.24-1-2-1.32C141.71,155.71,141.86,157.07,140.36,156.73Z"/><path class="cls-15" d="M66,164.14c0,.64.07,1.26.73,1.57a1.06,1.06,0,0,0,1.46-.5.4.4,0,0,1,.67-.08c.17.2,0,.41-.16.57a1.87,1.87,0,0,1-1.76.72,1.79,1.79,0,0,1-1.66-1.62,2.3,2.3,0,0,1,1-2.76,1.77,1.77,0,0,1,2.19.35c.26.26.67.67.28,1s-.54-.16-.75-.45a1,1,0,0,0-1.28-.36C66.13,162.9,66.05,163.5,66,164.14Z"/><path class="cls-15" d="M145.6,154.63a1.48,1.48,0,0,0,.65,1.49,1.08,1.08,0,0,0,1.56-.5.41.41,0,0,1,.58-.11c.25.19.07.4,0,.57a1.84,1.84,0,0,1-2.11.73,2,2,0,0,1-1.42-2.14,2.05,2.05,0,0,1,1.27-2.25,1.74,1.74,0,0,1,2.14.55c.2.26.55.62.14.9s-.51-.11-.68-.41a.94.94,0,0,0-1.24-.46C145.68,153.29,145.6,153.94,145.6,154.63Z"/><path class="cls-21" d="M39.68,156.89a1.82,1.82,0,0,1-2-1.47c-.24-1.08-.25-2.15.82-2.84a1.82,1.82,0,0,1,2.21.12c.34.26.76.75.45,1.08s-.58-.21-.82-.46a1,1,0,0,0-1.68.08,2,2,0,0,0,0,2.37c.54.76,1.26.72,1.85-.06.18-.24.42-.39.65-.16s0,.49-.17.67A1.73,1.73,0,0,1,39.68,156.89Z"/><path class="cls-22" d="M53.15,155.7c.37-1.13.66-2,.92-2.8.1-.32.19-.63.59-.54s.2.46.11.7c-.37,1.08-.77,2.16-1.15,3.24-.09.25-.14.51-.47.54s-.42-.28-.51-.5c-.41-1.12-.81-2.23-1.19-3.36-.06-.18-.41-.47,0-.62a.45.45,0,0,1,.61.34C52.41,153.61,52.73,154.51,53.15,155.7Z"/><path class="cls-23" d="M160.83,156.73c-1.22.36-1.74,0-1.75-1.13v-1.85c0-.34.07-.69-.43-.83s-.62-.4,0-.57c.31-.08.45-.2.44-.52s-.06-.55.35-.56.46.21.43.51.11.54.5.58.43.24.16.52A2.63,2.63,0,0,0,160.83,156.73Z"/><path class="cls-23" d="M123.13,152.59c-1.12.68-1.32,2.91-.4,3.66.18.15.38.23.28.46s-.3.16-.47.17a.91.91,0,0,1-1.09-1c0-.7,0-1.4,0-2.11,0-.4,0-.73-.53-.88s-.34-.34.06-.57S121.85,152,123.13,152.59Z"/><path class="cls-15" d="M70.47,160.82c.28,0,.35.14.39.39.1.58,1,.93.1,1.81a2,2,0,0,0,.57,2.85.4.4,0,0,1,.13.33c0,.21-.24.22-.4.23a1,1,0,0,1-1.15-1c-.06-.61,0-1.23,0-1.84,0-.27.07-.71,0-.77-1.09-.55-.16-1,0-1.5S70.28,160.83,70.47,160.82Z"/><path class="cls-15" d="M96.32,152.47c.16-.05.43-.05.47-.14.49-1.15.78-1.05,1.51-.06.38.52.56.38-.06.71s-.47,2.71.17,3.25c.17.15.41.26.28.47s-.38.17-.58.17c-.68,0-.91-.47-1-1a13.94,13.94,0,0,1,0-1.71C97.13,153.48,97.23,152.8,96.32,152.47Z"/><path class="cls-18" d="M58.88,163.17c0-.84,0-1.68,0-2.52,0-.29-.1-.66.42-.62s.36.3.36.57c0,1.72,0,3.44,0,5.17,0,.31,0,.65-.44.62s-.33-.44-.34-.7C58.87,164.85,58.88,164,58.88,163.17Z"/><path class="cls-24" d="M109.47,164.15v-.79c0-1.27.64-1.79,1.86-1.5.19,0,.32.11.32.33s-.07.38-.26.4c-1.47.09-1,1.21-1.14,2.06-.09.58.4,1.65-.37,1.65s-.23-1.06-.4-1.62A1.87,1.87,0,0,1,109.47,164.15Z"/><path class="cls-25" d="M107.43,156.79c-.15,0-.32-.17-.47-.15-2.27.38-2.57.17-2.52-2.1,0-.72-.38-2.1.3-2.06,1,.07.39,1.35.43,2.09.12,1.71.21,1.85,1.72,1.45C107.3,156.11,107.71,156.2,107.43,156.79Z"/><path class="cls-24" d="M109.21,154.49v-.66c0-1.34.55-1.8,1.84-1.52.18,0,.34.08.34.31s-.07.4-.25.41c-1.57.11-1,1.31-1.15,2.18-.09.55.35,1.53-.36,1.55s-.28-1-.41-1.49A3.38,3.38,0,0,1,109.21,154.49Z"/><path class="cls-22" d="M85.18,154.48V154c0-1.52.39-1.87,1.81-1.65.19,0,.37.09.34.3s-.14.4-.24.41c-1.54.16-1,1.34-1.14,2.22-.08.53.36,1.51-.35,1.52s-.28-1-.41-1.49A3,3,0,0,1,85.18,154.48Z"/><path class="cls-22" d="M55.74,154.48V154c0-1.52.39-1.87,1.82-1.65.18,0,.37.09.34.3s-.15.4-.24.41c-1.54.16-1,1.34-1.14,2.22-.09.53.36,1.51-.36,1.52s-.27-1-.41-1.49A3.45,3.45,0,0,1,55.74,154.48Z"/><path class="cls-26" d="M49.73,99.47c-1,1.06-1.55,2.46-3.25,1.85C47.24,99.28,47.29,99.25,49.73,99.47Z"/><path class="cls-18" d="M121.54,115.21a1.06,1.06,0,0,1-1.05,1.23,1.08,1.08,0,0,1-1.3-1c0-.66.38-1,1.06-1.08S121.43,114.58,121.54,115.21Z"/><path class="cls-18" d="M162.74,99.5a1,1,0,0,1,1,1c0,.79-.57,1.07-1.24,1a1,1,0,0,1-1.11-1.06C161.37,99.78,161.89,99.47,162.74,99.5Z"/><path class="cls-27" d="M162.41,154.68v1.58c0,.26,0,.56-.35.58s-.46-.19-.46-.49c0-1.18,0-2.37,0-3.55a.4.4,0,0,1,.36-.46c.37,0,.44.22.44.5Z"/><path class="cls-19" d="M107.43,156.79c0-.4-.4-.48-.54-.77.55-.93.15-2,.28-2.93,0-.31-.16-.78.44-.74s.33.44.34.7c0,1.09,0,2.19,0,3.28C108,156.71,107.85,156.91,107.43,156.79Z"/><path class="cls-10" d="M73.46,164.16c0,.57,0,1.15,0,1.72,0,.29-.06.52-.43.52s-.36-.29-.36-.55c0-1.14,0-2.29,0-3.43,0-.26,0-.55.39-.53s.39.28.39.56C73.47,163,73.46,163.59,73.46,164.16Z"/><path class="cls-10" d="M140.56,164.23q0,.86,0,1.71c0,.34-.17.47-.49.45s-.3-.26-.3-.47q0-1.78,0-3.57c0-.21,0-.44.33-.45s.46.17.46.48Z"/><path d="M135.42,152.5c-.22-.14-.27-.15-.28-.18a2.54,2.54,0,0,1,0-1.76s.3,0,.32,0A2.75,2.75,0,0,1,135.42,152.5Z"/><path class="cls-28" d="M34.57,151.88c.44-.86.51-1.63,1.57-1.35A2.64,2.64,0,0,1,34.57,151.88Z"/><path class="cls-28" d="M91.94,160.06c-.48.58-.78,1-1.41,1.14C90.69,160.59,90.75,159.89,91.94,160.06Z"/><path class="cls-29" d="M55.67,161c.51-.46.63-1.27,1.56-.9C56.82,160.57,56.65,161.26,55.67,161Z"/><path class="cls-30" d="M162.06,151.56a.39.39,0,0,1-.45-.34.4.4,0,0,1,.45-.47.39.39,0,0,1,.4.41A.38.38,0,0,1,162.06,151.56Z"/><path class="cls-31" d="M140.2,161.11c-.26,0-.43-.09-.44-.36a.36.36,0,0,1,.36-.44.39.39,0,0,1,.45.36C140.61,160.94,140.44,161.06,140.2,161.11Z"/><path class="cls-31" d="M73.49,160.71a.4.4,0,0,1-.42.4.36.36,0,0,1-.41-.4.38.38,0,0,1,.41-.41A.43.43,0,0,1,73.49,160.71Z"/><path class="cls-32" d="M86,16.74a3.11,3.11,0,0,1-2.3,1.62c-1.22.18-2.42.22-3.31-.81s-.43-2.08-.05-3.13c.31-.83.64-1.65,1-2.48.12-.3.18-.62-.11-.85s-.67-.09-1,.13a1.85,1.85,0,0,0-.65,1c-.41,1.31-.82,2.62-1.22,3.93a1,1,0,0,0,0,.9c.94,1.32-.1,1.25-.9,1.27-1.46,0-2.92,0-4.37,0a.8.8,0,0,1-.8-.36c-.17-.36.13-.56.41-.72.64-.37.75-1,.94-1.68.4-1.3.82-2.6,1.21-3.91.21-.7.61-1.4-.14-2.08-.33-.3,0-.63.27-.87a3.82,3.82,0,0,1,5.3.89c2.9-2.27,5-2.11,6.14.54A5.48,5.48,0,0,1,89,8.18a3,3,0,0,1,3.09.58,2.76,2.76,0,0,1,.57,3c-.35,1.14-.73,2.27-1,3.42-.09.36-.55,1.1.53.8.38-.1.37.27.33.53a2,2,0,0,1-.87,1.29A3.71,3.71,0,0,1,86.46,17a3.36,3.36,0,0,1,0-2.55,10,10,0,0,0,.83-2.92c-.69,0-.84.52-1,1-.24.62-.35,1.28-.56,1.9s-.49,1,.29,1.43C86.32,16,86.24,16.43,86,16.74Z"/><path class="cls-32" d="M66.49,9.36A6.58,6.58,0,0,1,69,8.06c2.38-.42,3.92,1.19,3.31,3.51-.32,1.19-.75,2.35-1.07,3.54-.11.39-.6,1.12.54.83.5-.12.35.37.29.64-.34,1.41-2.45,2.24-4.37,1.73-1.44-.38-2-1.53-1.54-3.12.33-1,.78-2.06,1.16-3.1.14-.37.32-.79-.14-1.05a.8.8,0,0,0-1,.34,4.12,4.12,0,0,0-.62,1.15c-.39,1.13-.72,2.27-1.08,3.41-.1.34-.3.72-.08,1,1,1.4-.08,1.31-.94,1.33-1.36,0-2.73,0-4.1,0-.35,0-.77.07-.95-.31s.14-.62.45-.81A2,2,0,0,0,59.54,16q1.37-4.48,2.74-9a1.15,1.15,0,0,0-.19-1.35c-.64-.61-.15-.93.37-1.15a6.21,6.21,0,0,1,3.75-.43,1.52,1.52,0,0,1,1.23,2.1C67.18,7.13,66.87,8.09,66.49,9.36Z"/><path class="cls-32" d="M139.45,14.4a7,7,0,0,1,2.72-5.63,4.67,4.67,0,0,1,3.91-.68c.42.09,1,.78,1.22.18s1.08-1.66.4-2.45c-.88-1-.11-1.2.54-1.46a6.79,6.79,0,0,1,3-.37c1.45.11,2,.9,1.6,2.33-.82,2.84-1.69,5.66-2.52,8.49-.13.45-.82,1.23.57,1,.46-.09.23.6.08.93-.8,1.65-3.29,2.14-5,1-.34-.24-.54-.68-1.08-.2a3.06,3.06,0,0,1-3.8.38A3.41,3.41,0,0,1,139.45,14.4Z"/><path class="cls-32" d="M97.81,18.94a2.66,2.66,0,0,1-2.11-2.65c-.17-1.27-.39-2.54-.64-3.79-.1-.49.06-1.23-.92-1.11-.5.06-.3-.43-.25-.69A3.79,3.79,0,0,1,97.42,8a2.84,2.84,0,0,1,2.83,2.71c.21,1.39.38,2.79.56,4.2,0,.3,0,.66.39.75s.59-.19.76-.44c.55-.87,1.28-1.64.29-2.79A3.12,3.12,0,0,1,102,9.26,1.81,1.81,0,0,1,103.74,8a1.7,1.7,0,0,1,1.67,1.27,3.33,3.33,0,0,1,.22,1.56c-.37,4.31-4.2,10.12-9.77,11a4.15,4.15,0,0,1-3-.52,2.17,2.17,0,0,1-1-2.4,1.4,1.4,0,0,1,1.35-1.23,2,2,0,0,1,2.2,1.34C95.86,20.17,96.19,20.17,97.81,18.94Z"/><path class="cls-32" d="M54.39,7.94c.69.11,1.4.17,2.08.34a3.66,3.66,0,0,1,2.89,4.38c-.71,4.7-6.64,7.49-10.74,5.05A4,4,0,0,1,47.09,13C47.9,10,50.84,8,54.39,7.94Z"/><path class="cls-32" d="M118.68,18.46c-.36,0-1-.06-1.59-.18a3.81,3.81,0,0,1-3.2-4.78C115,8.27,121.2,7,124.53,8.73c1.53.82,2.1,2.54,1.63,4.5C125.39,16.42,122.49,18.52,118.68,18.46Z"/><path class="cls-32" d="M134.38,8c1.56.08,3.42.28,4.32,2.21s.29,3.73-.84,5.35a7.81,7.81,0,0,1-9.19,2.32c-1.85-.89-2.54-3-1.77-5.25C127.85,9.84,130.73,8,134.38,8Z"/><path class="cls-32" d="M113.44,5.28c-1.24.35-1.4,1.25-1.36,2.21s.78.77,1.38.79,1.32-.17,1.33.67-.64,1-1.32,1-.89.3-1.06.89c-.48,1.69-1,3.36-1.54,5-.11.37-.34.79-.07,1.15.82,1.12.08,1.26-.79,1.28-1.5,0-3,0-4.51,0-.32,0-.67-.05-.8-.35s.15-.55.42-.72a2.29,2.29,0,0,0,.87-1.44c.4-1.31.77-2.62,1.21-3.92a2,2,0,0,0-.43-2.39c-.7-.65-.36-1.15.5-1.17.69,0,.9-.2.86-.92a2.86,2.86,0,0,1,2.08-2.91,8.74,8.74,0,0,1,5.58-.21c1,.27,2,.84,1.74,2.11s-1.33,1.3-2.32,1.24c-1.18-.08-1.89-.68-1.67-2A1,1,0,0,0,113.44,5.28Z"/><path class="cls-13" d="M84.35,281.11c0,.44,0,.88,0,1.32,0,.6.27,1.27-.87,1.29s-.94-.71-1-1.36c0-1,0-1.94,0-2.91,0-.66-.18-1.15-1-1.12a1.07,1.07,0,0,0-1.16,1.15c0,1.15-.05,2.3,0,3.44,0,.71-.28.79-.86.77s-1,0-1-.8c.07-1.15,0-2.3,0-3.44,0-.64-.17-1.15-1-1.12s-1.15.35-1.15,1.13c0,1.15,0,2.3,0,3.44,0,.68-.24.81-.84.79s-1,0-1-.82c.07-1.63,0-3.26,0-4.89,0-1,.7-1.37,1.6-.86.14.08.09.48.41.26a2.37,2.37,0,0,1,3.33.23c.25.26.35-.11.5-.2,2.08-1.28,3.66-.45,3.77,2,0,.57,0,1.14,0,1.72Z"/><path class="cls-12" d="M10.64,279.15c0-1.24,0-2.48,0-3.71,0-.64.17-.84.81-.82,1.46,0,2.91,0,4.37,0,.6,0,.73.22.72.77s-.18.79-.76.76-1.42.06-2.11,0c-.92-.1-1.17.21-1.2,1.14s.33,1.31,1.28,1.19c.52-.06,1.06,0,1.58,0,.69-.06.78.3.8.88s-.39.62-.85.66c-.9.06-2.1-.43-2.63.23s-.18,1.69-.12,2.57-.27.91-1,.92-1-.27-.92-1C10.68,281.53,10.64,280.34,10.64,279.15Z"/><path class="cls-12" d="M67.59,280.57c0-2.24,1-3.5,2.78-3.73a3.13,3.13,0,0,1,3.33,3.63c-.13.52-.49.42-.82.43-.93,0-1.85,0-2.78,0-.75,0-.72.35-.35.81A1.55,1.55,0,0,0,72,282c.64-.44,1-.23,1.26.26.43.68-.27.85-.62,1a3.53,3.53,0,0,1-3.54,0A2.86,2.86,0,0,1,67.59,280.57Z"/><path class="cls-12" d="M85.36,280.4c0-1.8.76-2.92,2.06-3.38a3,3,0,0,1,4,3.37c-.07.53-.39.51-.74.51H87.81c-.63,0-.66.29-.34.73a1.57,1.57,0,0,0,2.34.38c.69-.48,1-.12,1.24.32.39.61-.26.76-.57,1a3.5,3.5,0,0,1-3.54.07A3,3,0,0,1,85.36,280.4Z"/><path class="cls-13" d="M46.07,280.36c0-2.11,1.24-3.54,3.09-3.54a3.26,3.26,0,0,1,3.27,3.53,3.11,3.11,0,0,1-3.19,3.43C47.3,283.78,46.08,282.46,46.07,280.36Z"/><path class="cls-13" d="M17.17,280.38c0-2.12,1.22-3.55,3.06-3.56a3.24,3.24,0,0,1,3.29,3.51,3.1,3.1,0,0,1-3.17,3.44C18.41,283.78,17.18,282.48,17.17,280.38Z"/><path class="cls-12" d="M92.43,280.27a18.75,18.75,0,0,0,0-2.25c-.15-1.25.77-1.32,1.36-1s1,.16,1.46,0a2,2,0,0,1,2.92,1.8c.1,1.41,0,2.82.08,4.23,0,.85-.55.59-1,.64s-.83,0-.8-.68c0-1.11,0-2.21,0-3.32,0-.68-.08-1.38-1-1.35s-1.24.48-1.21,1.36,0,2,0,3.05c0,.56.06,1-.79,1-.66,0-1.08-.08-1-.91S92.43,281.11,92.43,280.27Z"/><path class="cls-12" d="M24.54,280.28c0-.75,0-1.5,0-2.25,0-1,.67-1.51,1.47-1a.84.84,0,0,0,1.08.06,2,2,0,0,1,3.18,1.83c.09,1.36,0,2.73.07,4.1,0,.84-.54.6-1,.64s-.84,0-.81-.68c.05-1.06,0-2.12,0-3.18,0-.7,0-1.5-1-1.49s-1.26.59-1.22,1.49,0,1.85,0,2.78c0,.67,0,1.12-.92,1.12s-.87-.58-.87-1.19Z"/><path class="cls-12" d="M53.44,280.35a19,19,0,0,0,0-2.39c-.12-1,.65-1.3,1.16-.94.82.6,1.32,0,2-.13a2,2,0,0,1,2.59,1.71c.12,1.49,0,3,.1,4.5,0,.77-.5.56-.9.57s-.9.14-.87-.6c0-1.06,0-2.12,0-3.18,0-.75.05-1.6-1.09-1.56s-1.2.69-1.16,1.55,0,1.94,0,2.91c0,.66-.12.92-.86.92s-1-.23-1-1S53.44,281.14,53.44,280.35Z"/><path class="cls-12" d="M60.6,280.29V278c0-1,.77-1.6,1.44-1s.85.13,1.22,0a2.06,2.06,0,0,1,3.08,1.88c.08,1.28,0,2.56.07,3.84,0,.63-.07.95-.83.94s-1-.19-1-.95c.06-1.1,0-2.21,0-3.31,0-.72-.32-1.19-1.14-1.11a1.08,1.08,0,0,0-1.1,1.21c0,1.1-.05,2.21,0,3.31.05.77-.3.83-.92.85s-1-.19-.9-.89S60.6,281.13,60.6,280.29Z"/><path class="cls-12" d="M37.56,279.38c-.77.06-1.55.35-2-.7-.16-.4-.66-.4-1.06-.33-.86.16-.94.87-1,1.52-.06.87-.18,1.85.77,2.35a1.1,1.1,0,0,0,1.55-.57,1.07,1.07,0,0,1,1.52-.22c.46.31,0,.87-.24,1.24a3.26,3.26,0,0,1-4.08.73c-1.32-.59-1.54-1.83-1.58-3.09a3,3,0,0,1,1.71-3.13,3.24,3.24,0,0,1,3.69.49A2.2,2.2,0,0,1,37.56,279.38Z"/><path class="cls-33" d="M102.19,283.75a1.67,1.67,0,0,1-1.91-1.77c0-.74,0-1.49,0-2.24s.39-1.59-.93-1.5c-.42,0-.32-.44-.34-.73s.08-.56.42-.53c.71.08,1-.23.86-.9s.17-.86.81-.82,1.1-.05,1,.79c-.06.51,0,1,.7.92.38,0,.43.23.41.51s.11.78-.28.76c-1.16,0-.8.78-.83,1.35s0,1.24,0,1.85c0,.35,0,.82.46.83.84,0,.78.56.68,1.07S102.49,283.61,102.19,283.75Z"/><path class="cls-33" d="M40.94,283.75A1.67,1.67,0,0,1,39,282c0-.88,0-1.76,0-2.64,0-.49.15-.94-.67-1.14-.62-.16-.59-1,.09-1.19s.62-.39.58-.81c-.06-.61,0-1,.82-.95s1.11.12,1,.94c0,.41,0,.84.58.77s.54.27.54.66-.06.71-.56.67-.58.23-.57.65c0,.83,0,1.67,0,2.51,0,.35,0,.81.47.82.72,0,.74.42.69.94C41.91,284,41.24,283.58,40.94,283.75Z"/><path class="cls-14" d="M43,280.3c0-.74,0-1.49,0-2.23s-.11-1.17.88-1.14,1,.41,1,1.12c0,1.62-.05,3.25,0,4.87,0,.85-.46.74-1,.77s-.91,0-.86-.75C43,282.06,43,281.18,43,280.3Z"/><path class="cls-34" d="M86,16.74c-.15-.27.39-1.17-.65-.68-.34.16-.44-.17-.36-.46.39-1.25.76-2.51,1.21-3.74.2-.54.68-1.11,1.29-.85.76.31.27,1,.1,1.46C87.09,14,86.19,15.34,86.46,17Z"/><path class="cls-14" d="M43.94,274.32c.56,0,.94.3.91,1a.86.86,0,0,1-1,.83c-.59,0-1-.31-1-1S43.36,274.33,43.94,274.32Z"/><path d="M56.25,48.66a5.57,5.57,0,0,1-.7,2.43,34.61,34.61,0,0,1-2.78,4.33c-.61.79-1.13.89-1.76,0a20.62,20.62,0,0,1-3.28-5.53,3.87,3.87,0,0,1,1.33-4.39,4.15,4.15,0,0,1,4.58-.66A4.25,4.25,0,0,1,56.25,48.66Z"/><path class="cls-12" d="M100.3,51.63c0-1,.06-2,0-3s.3-1.22,1.19-1.14,1.77,0,2.64.11A2,2,0,0,1,105.42,51c-.4.45-.24.5.08.81a2.18,2.18,0,0,1-1,3.75,14.71,14.71,0,0,1-3.69.2c-.63,0-.55-.41-.55-.8Z"/><path class="cls-12" d="M67.68,51.5c0-1.06,0-2.11,0-3.17,0-.57.08-.92.77-.87,1,.06,2.12,0,3.16.09a2.49,2.49,0,0,1,2.26,2.62,2.41,2.41,0,0,1-2.32,2.4h-.13c-2.12.22-2.15.22-2.23,2.37,0,.65-.22.81-.84.82s-.67-.36-.67-.84C67.69,53.79,67.68,52.64,67.68,51.5Z"/><path class="cls-12" d="M121.06,53.1c.37,1.54,1.2,2,2.47,1.36.41-.21.76-.55,1.09,0s-.24.76-.56,1a3.22,3.22,0,0,1-3.58-.35,3.81,3.81,0,0,1-.47-4.19,2.64,2.64,0,0,1,3.16-1.27,2.92,2.92,0,0,1,1.8,3.16c-.14.47-.48.3-.74.31C123.18,53.11,122.13,53.1,121.06,53.1Z"/><path class="cls-12" d="M141.66,53.1c.6,1.65,1.32,2,2.65,1.29.41-.21.69-.38,1,.06s-.14.7-.43.91a3.2,3.2,0,0,1-3.69-.27,3.81,3.81,0,0,1-.5-4.19,2.64,2.64,0,0,1,3.16-1.28,2.92,2.92,0,0,1,1.82,3.15c-.13.47-.46.31-.73.32C143.88,53.11,142.82,53.1,141.66,53.1Z"/><path class="cls-12" d="M108.52,53.1c.58,1.64,1.31,2,2.63,1.3.4-.21.68-.4,1,0s-.13.71-.42.91A3.2,3.2,0,0,1,108,55.1a3.81,3.81,0,0,1-.51-4.19,2.63,2.63,0,0,1,3.15-1.29,2.89,2.89,0,0,1,1.83,3.13c-.12.48-.45.34-.72.34C110.74,53.11,109.68,53.1,108.52,53.1Z"/><path class="cls-13" d="M79.83,53.1a10.81,10.81,0,0,0,.11,2c.14.58,0,.83-.51.64a4.81,4.81,0,0,0-2.47.06,1.75,1.75,0,0,1-2.11-1.53,1.77,1.77,0,0,1,1.44-2.07A11,11,0,0,1,77.46,52c.32-.07.76.16,1-.22a.82.82,0,0,0-.26-1,1,1,0,0,0-1.1-.25,1,1,0,0,0-.46.25c-.43.59-1.16.85-1.48.27s.43-1.06,1-1.33A2.43,2.43,0,0,1,79.85,52c0,.36,0,.71,0,1.06Z"/><path class="cls-33" d="M90.67,55.82a2.6,2.6,0,0,1-2.27-.9c-.23-.29-.61-.7-.18-1a.8.8,0,0,1,1.16.18c.17.27.33.53.66.6.61.11,1.34.29,1.58-.49s-.49-.81-1-1-.94-.27-1.38-.45A1.49,1.49,0,0,1,88.2,51.4a1.71,1.71,0,0,1,1-1.59,3,3,0,0,1,3.31.42c.29.33.66.77.24,1.12a.79.79,0,0,1-1.16-.18,1.15,1.15,0,0,0-.67-.58,1,1,0,0,0-1.26.41c-.3.65.24.84.72,1s.77.18,1.14.31c.85.28,1.61.72,1.52,1.73a1.86,1.86,0,0,1-1.87,1.73Z"/><path class="cls-33" d="M128.07,53.93c.41-1.36.78-2.3,1-3.27s.64-1.27,1.7-.95c-.64,1.88-1.26,3.77-1.94,5.64a.82.82,0,0,1-1.45,0c-.66-1.72-1.24-3.48-1.85-5.22-.08-.25-.14-.54.28-.55s1-.15,1.15.53C127.25,51.29,127.61,52.42,128.07,53.93Z"/><path class="cls-13" d="M137.66,51.25c0-1.18,0-2.37,0-3.56,0-.47.07-.72.64-.72s.75.16.75.74q0,3.65,0,7.27c0,.53-.08.78-.7.79s-.68-.33-.68-.82C137.67,53.72,137.66,52.49,137.66,51.25Z"/><path d="M136.11,51.48c0,1.19,0,2.38,0,3.57,0,.48-.1.71-.65.71s-.74-.17-.74-.75q0-3.63,0-7.26c0-.53.09-.78.71-.78s.68.33.67.82C136.1,49,136.11,50.25,136.11,51.48Z"/><path d="M118.08,51.49c0,1.15,0,2.29,0,3.44,0,.46,0,.84-.65.84s-.74-.2-.73-.76c0-2.43,0-4.85,0-7.27,0-.55.11-.77.72-.77s.67.35.66.82C118.07,49,118.08,50.26,118.08,51.49Z"/><path d="M113.79,51.37c0-1.19,0-2.38,0-3.57,0-.46,0-.84.65-.83s.74.21.73.76c0,2.42,0,4.85,0,7.27,0,.55-.13.76-.73.77s-.65-.37-.65-.83C113.8,53.75,113.79,52.56,113.79,51.37Z"/><path class="cls-12" d="M81.37,52.68c0-.53,0-1.06,0-1.59s-.23-1.1.16-1.39a.92.92,0,0,1,1.3.24c0,.06.58-.26.9-.36s.76-.25.83.27c0,.36.3.93-.48,1-1.18,0-1.44.77-1.35,1.8a13.22,13.22,0,0,1,0,2c0,.49.33,1.2-.71,1.16s-.59-.77-.64-1.23A16.29,16.29,0,0,1,81.37,52.68Z"/><path d="M85.42,52.6c0-.75,0-1.51,0-2.26,0-.56.14-.77.73-.76s.66.24.65.72q0,2.39,0,4.77c0,.51-.15.67-.67.69s-.73-.24-.71-.78C85.44,54.19,85.42,53.39,85.42,52.6Z"/><path d="M131.83,52.69c0-.8,0-1.6,0-2.39,0-.48.09-.71.64-.72s.75.2.74.76c0,1.55,0,3.1,0,4.64,0,.54-.1.78-.72.79s-.67-.35-.66-.83C131.84,54.19,131.83,53.44,131.83,52.69Z"/><path class="cls-22" d="M95.61,55.24a3.13,3.13,0,0,1-.73,2,.46.46,0,0,1-.67.15c-.28-.17-.38-.36-.23-.64a3.24,3.24,0,0,0,.4-1.51c0-.52,0-1,.72-.89S95.58,55,95.61,55.24Z"/><path class="cls-26" d="M133.25,47.94a.66.66,0,0,1-.78.7.61.61,0,0,1-.67-.63.67.67,0,0,1,.71-.74A.68.68,0,0,1,133.25,47.94Z"/><path class="cls-26" d="M86.15,48.64c-.45,0-.76-.18-.76-.67a.67.67,0,0,1,.75-.7.64.64,0,0,1,.69.63A.62.62,0,0,1,86.15,48.64Z"/><path class="cls-12" d="M63.81,321c-.76.18-1.41.26-1.76-.73-.2-.54-.83-.59-1.38-.52a1.32,1.32,0,0,0-1.13,1,6.3,6.3,0,0,0,0,3.14,1.23,1.23,0,0,0,1.23,1c.61,0,1.2-.06,1.42-.7a.9.9,0,0,1,1.47-.47c.38.26,0,.86-.24,1.25a3,3,0,0,1-3.29,1.12,2.73,2.73,0,0,1-2.2-2.36,6.47,6.47,0,0,1,0-2.63,3.06,3.06,0,0,1,3-2.66A2.78,2.78,0,0,1,63.81,321Z"/><path class="cls-12" d="M66.26,320.9c2.3-.92,3.26-.3,3.3,2.05,0,.79,0,1.59,0,2.38,0,.49,0,.82-.67.82s-.84-.21-.8-.83c0-.88,0-1.77,0-2.65,0-.59-.24-1.06-.94-1s-.92.4-.89,1c0,.84,0,1.68,0,2.52,0,.66-.13.92-.86.93s-.67-.47-.67-.94c0-2.08,0-4.15,0-6.23,0-.59.1-.85.78-.85s.8.32.77.89S66.26,320.25,66.26,320.9Z"/><path class="cls-12" d="M100.31,323.79c.49,1.32,1.29,1.47,2.18,1,.54-.31.82-.17,1.05.26s-.26.65-.54.83a3.5,3.5,0,0,1-3.8-.54,3.46,3.46,0,0,1-.34-3.48,2.86,2.86,0,0,1,3-1.3,2.62,2.62,0,0,1,2,2.85c-.08.47-.39.4-.68.41Z"/><path class="cls-12" d="M75.65,323.48a2.51,2.51,0,0,1-2.74,2.7,2.67,2.67,0,0,1-2.53-3.08,2.58,2.58,0,0,1,2.7-2.66A2.62,2.62,0,0,1,75.65,323.48Z"/><path class="cls-12" d="M117.56,323.45c0,.66,0,1.33,0,2s-.33.9-.76.66c-.71-.39-1.29,0-1.94,0a1.64,1.64,0,0,1-2.09-1.63c-.09-1.14,0-2.29,0-3.44,0-.66.41-.53.79-.55s.77.05.75.63c0,.92,0,1.85,0,2.78,0,.58.1,1.11.84,1.06a1,1,0,0,0,1-1.12c0-.88,0-1.77,0-2.65,0-.64.28-.7.79-.71s.71.15.69.68C117.53,322,117.56,322.7,117.56,323.45Z"/><path class="cls-12" d="M118.57,323.23c0-.71,0-1.41,0-2.12,0-.35.09-.73.48-.55,1,.46,1.85-.06,2.76-.07a1.38,1.38,0,0,1,1.51,1.36c.09,1.23,0,2.48.08,3.71,0,.64-.37.55-.77.58s-.72-.12-.7-.66c0-.93,0-1.86,0-2.79,0-.58-.21-1.08-.92-1a.87.87,0,0,0-.91,1c0,.84,0,1.68,0,2.52,0,.66-.11.93-.85.94s-.69-.46-.69-.94Z"/><path class="cls-14" d="M92.94,324.41c.55-.07,1.1-.33,1.51.33.32.51.84.4,1.32.31a.42.42,0,0,0,.35-.48c-.09-.58-.62-.55-1-.68-1.76-.58-2.32-1.22-1.94-2.26s2-1.48,3.23-1a1.59,1.59,0,0,1,.34.18c.48.29,1,.78.75,1.22A1,1,0,0,1,96,321.9a.82.82,0,0,0-.79-.35c-.32,0-.62.14-.67.5s.21.48.46.57c.54.18,1.1.3,1.63.5a1.38,1.38,0,0,1,1,1.29,1.54,1.54,0,0,1-.92,1.48A2.49,2.49,0,0,1,92.94,324.41Z"/><path class="cls-14" d="M92.05,322.14c-.68,0-1.27.34-1.73-.37-.26-.39-.73-.26-1.1-.1a.52.52,0,0,0-.23.43c0,.42.4.52.76.6a9,9,0,0,1,1,.27c.75.28,1.34.71,1.27,1.63a1.62,1.62,0,0,1-1.44,1.5,2.7,2.7,0,0,1-2.91-.75c-.21-.26-.54-.64-.25-.91s.67-.1,1-.09.35.37.54.54a1.27,1.27,0,0,0,1.26.14.41.41,0,0,0,.3-.51c-.12-.48-.58-.48-.94-.61-1-.34-2.2-.47-2.07-1.94.09-.94.78-1.32,1.63-1.46A2.28,2.28,0,0,1,92.05,322.14Z"/><path class="cls-14" d="M79.15,324.42c.6-.13,1.15-.28,1.6.41.31.48.88.31,1.34.17a.47.47,0,0,0,.23-.42c-.07-.58-.6-.56-1-.69-1.77-.58-2.33-1.21-1.95-2.26s2-1.48,3.22-1a2.37,2.37,0,0,1,.35.19c.48.28,1,.78.75,1.21a1,1,0,0,1-1.46-.1.84.84,0,0,0-.79-.36c-.33,0-.63.14-.68.49s.21.49.45.57c.54.19,1.11.3,1.64.51a1.37,1.37,0,0,1,1,1.28,1.55,1.55,0,0,1-.91,1.49A2.5,2.5,0,0,1,79.15,324.42Z"/><path class="cls-33" d="M106.29,324.91c.85,0,1.41,0,2,0s.75,0,.77.62-.27.63-.72.62c-1,0-2,0-3,0s-1.22-.38-.65-1.26c.33-.51.74-1,1.11-1.47s.72-1,1.23-1.68c-.75,0-1.3,0-1.85,0s-.65-.06-.67-.56.25-.65.72-.64c1,0,1.94,0,2.9,0,1.12,0,1.1.5.62,1.19C108,322.75,107.19,323.73,106.29,324.91Z"/><path class="cls-21" d="M86.5,323.37c0,.66,0,1.32,0,2,0,.5,0,.83-.68.81S85,326,85,325.35c0-1.36,0-2.73,0-4.1,0-.6.25-.72.79-.73s.78.15.74.74S86.5,322.67,86.5,323.37Z"/><path class="cls-21" d="M78.28,323.4c0,.62,0,1.24,0,1.85s.06.94-.71.91-.84-.21-.82-.84c0-1.32,0-2.65,0-4,0-.63.18-.82.82-.84s.72.4.71.91S78.28,322.74,78.28,323.4Z"/><path class="cls-35" d="M10.12,322.37l-1.6.28a13.27,13.27,0,0,1,2.94-6A36,36,0,0,0,10.12,322.37Z"/><path class="cls-10" d="M77.46,318.33c.52,0,.85.2.87.69s-.27.79-.81.79a.71.71,0,0,1-.8-.68C76.67,318.58,77.06,318.39,77.46,318.33Z"/><path class="cls-10" d="M85.72,319.81a.72.72,0,0,1-.79-.71c0-.53.36-.77.86-.76a.67.67,0,0,1,.76.7C86.56,319.58,86.24,319.83,85.72,319.81Z"/><path class="cls-1" d="M33.42,327.46c0-1,0-2,0-3,0-.69.13-1.06.93-1,1.32.05,2.65,0,4,0,.68,0,.94.24.93.92,0,2.16,0,4.33,0,6.49,0,.72-.29.9-1,.89q-2-.06-4,0c-.69,0-.95-.22-.92-.91C33.45,329.66,33.42,328.56,33.42,327.46Z"/><path class="cls-36" d="M139.78,186.29h.27c1.28-.12,2.45.48,3.71.53a12.77,12.77,0,0,1,7.22,2.87A15.45,15.45,0,0,1,157.05,200a5.11,5.11,0,0,0,.5,1.19v2.92a16.21,16.21,0,0,1-13.71,14.53c-.73.1-1.46.28-2.2.33h-.27a79.23,79.23,0,0,1-9,.27h-65a79.34,79.34,0,0,1-9-.27H58.1c-3.5-.39-6.86-1.21-9.66-3.48a16.46,16.46,0,0,1-6.25-11.38v-2.92c.73-2.28,1.15-4.65,2.43-6.75,2.63-4.3,6.25-7,11.36-7.58,1.26,0,2.43-.65,3.72-.53H60c.83.35,1.65,0,2.48,0q37.43,0,74.86,0C138.13,186.28,139,186.64,139.78,186.29Z"/><path class="cls-11" d="M58.37,218.93a2.51,2.51,0,0,1,2.16-.21,16.42,16.42,0,0,0,3.42.21q36.26,0,72.5,0c1.2,0,2.36-.3,3.55-.28.46,0,1-.17,1.37.26a2.91,2.91,0,0,1-2,.53h-79A2.91,2.91,0,0,1,58.37,218.93Z"/><path class="cls-37" d="M139.78,186.29c-.39.44-.91.26-1.37.26H61.33c-.46,0-1,.18-1.37-.26a52.33,52.33,0,0,1,8.58-.25q31.33,0,62.66,0A52.33,52.33,0,0,1,139.78,186.29Z"/><path class="cls-11" d="M141.64,218.93c.67-.71,1.63-.58,2.46-.73,6.88-1.26,10.9-5.51,12.8-12,.2-.7,0-1.51.65-2.08.66,1.05.09,2.09-.21,3-2.26,7-7.13,10.95-14.34,12.08C142.56,219.24,142,219.37,141.64,218.93Z"/><path class="cls-11" d="M42.19,204.07c.49.52.44,1.2.59,1.83,1.51,6.14,6,11.17,12.73,12.28.87.14,1.87,0,2.59.75-1,.7-2.05.08-3-.11a15.76,15.76,0,0,1-9.42-5.61,16.8,16.8,0,0,1-3.7-8C41.89,204.8,41.82,204.37,42.19,204.07Z"/><path class="cls-37" d="M143.76,186.82a8.68,8.68,0,0,1-3.71-.53,1.22,1.22,0,0,1,1.44-.2C142.21,186.55,143.08,186.36,143.76,186.82Z"/><path class="cls-37" d="M59.7,186.29a8.75,8.75,0,0,1-3.72.53C57.22,186.67,58.32,185.52,59.7,186.29Z"/><path class="cls-11" d="M42.19,201.15a3,3,0,0,1,0,2.66A3,3,0,0,1,42.19,201.15Z"/><path class="cls-11" d="M157.55,203.81a3,3,0,0,1,0-2.66A3,3,0,0,1,157.55,203.81Z"/><path class="cls-38" d="M38.26,102.94c0-.72-.16-1.41,1-1.31.92.08,1.72.19,1.74,1.3s-.85,1.3-1.81,1.37C38,104.4,38.31,103.56,38.26,102.94Z"/><path class="cls-37" d="M150.26,105.92c0,.31,0,.62,0,.93a.86.86,0,0,1-.81.89.92.92,0,0,1-1.13-.68,4.17,4.17,0,0,1,0-2.35.93.93,0,0,1,1.06-.77.9.9,0,0,1,.92,1.06C150.25,105.3,150.27,105.61,150.26,105.92Z"/><path class="cls-35" d="M100.85,105.14c0-.79.38-1.18,1-1.21s1,.19,1,.79-.55.36-.87.41A9.24,9.24,0,0,1,100.85,105.14Z"/><path class="cls-34" d="M101.74,120.71c-.15.76,0,1.77-1.15,1.9-.83.08-1.49-.79-1.5-1.89s.64-2,1.47-1.91C101.76,118.9,101.59,119.9,101.74,120.71Z"/><path class="cls-34" d="M69.65,120.76c-.11.52,0,1.09-.42,1.51a1,1,0,0,1-1.52,0,3.13,3.13,0,0,1,0-3.22,1,1,0,0,1,1.52.06C69.67,119.6,69.55,120.22,69.65,120.76Z"/><path class="cls-35" d="M47.49,105.16c-.33-.15-1,.26-1-.3a.94.94,0,0,1,1.07-.93c.53,0,1,.24,1,.84S47.83,105,47.49,105.16Z"/><path class="cls-35" d="M61.57,105.17c-.32-.2-1,.34-1-.42a.92.92,0,0,1,1-.82c.53,0,1,.22,1,.82C62.56,105.51,61.9,105,61.57,105.17Z"/><path class="cls-35" d="M79.59,105.14c.11-.66.31-1,.79-1.16a1,1,0,0,1,1.09.24.61.61,0,0,1,.2.72c-.21.39-.62.16-1,.19A10.37,10.37,0,0,1,79.59,105.14Z"/><path class="cls-35" d="M124,105.2c-.38-.23-1.07.31-1-.45a.92.92,0,0,1,1-.82c.53,0,1,.22,1,.82C124.88,105.54,124.18,104.87,124,105.2Z"/><path class="cls-35" d="M125,120a1,1,0,0,1,.62-1.13,1,1,0,0,1,1.21.23.61.61,0,0,1,.17.72c-.23.36-.64.14-1,.17A9,9,0,0,1,125,120Z"/><path class="cls-39" d="M28.34,153.85a6.13,6.13,0,0,1,0-1c.06-.43-.31-1.07.29-1.26a1.78,1.78,0,0,1,1.64.27c.95.73.86,1.77.72,2.77a1.73,1.73,0,0,1-1.54,1.55c-.87.17-1.24,0-1.13-1A11.61,11.61,0,0,0,28.34,153.85Z"/><path class="cls-7" d="M72.22,154.67c.1.85-.08,1.6-1.08,1.56S70,155.39,70,154.58s.2-1.6,1.14-1.61C72.29,153,72.29,153.85,72.22,154.67Z"/><path class="cls-7" d="M100.83,164.18c-.11-.86,0-1.64,1-1.66s1.23.85,1.22,1.67-.15,1.61-1.14,1.62S100.71,165,100.83,164.18Z"/><path class="cls-7" d="M133.21,154.59c.09.81,0,1.62-1,1.64s-1.18-.75-1.19-1.56.17-1.7,1.2-1.7S133.31,153.79,133.21,154.59Z"/><path class="cls-11" d="M154.82,154.66c-.08-.85,0-1.69,1-1.69s1.2.76,1.19,1.58-.16,1.71-1.21,1.7S154.74,155.4,154.82,154.66Z"/><path class="cls-40" d="M114.52,155.25a1.08,1.08,0,0,1-1.19,1c-.43,0-.92-.24-.8-.8.15-.71.79-.7,1.36-.72C114.27,154.67,114.61,154.72,114.52,155.25Z"/><path class="cls-40" d="M101.9,154.69c.35,0,.73-.05.69.5a1.08,1.08,0,0,1-1.14,1c-.41,0-.94-.19-.86-.76C100.69,154.72,101.33,154.71,101.9,154.69Z"/><path class="cls-3" d="M106.66,164.25c.48,0,.81-.06.81.48,0,.75-.52,1-1.09,1s-.9-.14-.85-.72C105.59,164.24,106.23,164.3,106.66,164.25Z"/><path class="cls-40" d="M36,154.19a4.34,4.34,0,0,1-.88,0c-.38-.07-.95.32-1.12-.27-.12-.39.24-.71.62-.9a.91.91,0,0,1,1.25.38A.74.74,0,0,1,36,154.19Z"/><path class="cls-35" d="M166.9,154.66c0,.83-.25,1.63-1.38,1.61s-1.36-.79-1.35-1.71.3-1.6,1.31-1.63S166.88,153.64,166.9,154.66Z"/><path class="cls-35" d="M77.8,164.17c0,.84-.24,1.68-1.28,1.64s-1.21-.86-1.19-1.73.31-1.58,1.21-1.59S77.78,163.3,77.8,164.17Z"/><path class="cls-3" d="M61.62,163.74a1.16,1.16,0,0,1,.75-1.21.92.92,0,0,1,1.06.27.66.66,0,0,1,.25.7c-.16.46-.59.19-.9.23A9,9,0,0,1,61.62,163.74Z"/><path class="cls-40" d="M90.71,163.76c-.34-.18-1,.33-1.06-.34s.45-.94,1-.95a.9.9,0,0,1,1,.87C91.69,164.05,91.05,163.61,90.71,163.76Z"/><path class="cls-40" d="M139.12,154.19a4.33,4.33,0,0,1-.88,0c-.39-.07-1,.32-1.12-.27-.12-.39.24-.71.62-.9a.92.92,0,0,1,1.25.38A.78.78,0,0,1,139.12,154.19Z"/><path class="cls-3" d="M59.22,154.19a1.2,1.2,0,0,1,.66-1.16.89.89,0,0,1,1.09.14.72.72,0,0,1,.32.8c-.18.44-.61.17-.92.21A8.8,8.8,0,0,1,59.22,154.19Z"/><path class="cls-3" d="M74.88,154.19a1.15,1.15,0,0,1,.86-1.24.85.85,0,0,1,1,.39.81.81,0,0,1,.18.59c-.15.48-.58.21-.89.25A9.1,9.1,0,0,1,74.88,154.19Z"/><path class="cls-3" d="M88.66,154.19a1.18,1.18,0,0,1,.77-1.21.9.9,0,0,1,1.06.27.7.7,0,0,1,.24.71c-.18.45-.61.18-.92.22A8.78,8.78,0,0,1,88.66,154.19Z"/><path class="cls-3" d="M150.19,154.19a1.15,1.15,0,0,1,.86-1.24.85.85,0,0,1,1,.39.83.83,0,0,1,.18.6c-.15.47-.58.2-.89.24A9.1,9.1,0,0,1,150.19,154.19Z"/><path class="cls-3" d="M54.94,163.74a1.33,1.33,0,0,1,.88-1.24.93.93,0,0,1,1,.37.62.62,0,0,1,.17.72c-.19.3-.56.13-.84.15S55.4,163.74,54.94,163.74Z"/><path class="cls-37" d="M137.92,164.14c-.1.83-.27,1.67-1.3,1.67s-1.23-.79-1.24-1.57.17-1.71,1.2-1.74S137.83,163.29,137.92,164.14Z"/><path class="cls-37" d="M45.37,154.55c-.1.87-.28,1.71-1.31,1.71s-1.22-.8-1.23-1.58S43,153,44,152.94,45.28,153.75,45.37,154.55Z"/><path class="cls-37" d="M122.27,164.2c-.11.83-.32,1.66-1.36,1.61s-1.18-.86-1.18-1.63.22-1.71,1.27-1.69S122.21,163.35,122.27,164.2Z"/><path class="cls-41" d="M143.81,14.31a8.14,8.14,0,0,1,1.34-3.89c.33-.47.77-.84,1.33-.53s.14.78,0,1.16c-.35,1.22-.73,2.44-1.13,3.65-.16.48-.26,1.18-.94,1.07S143.82,14.93,143.81,14.31Z"/><path class="cls-34" d="M54.65,11a20.56,20.56,0,0,1-1.69,5c-.19.37-.46.85-1,.62s-.4-.65-.33-1a17.54,17.54,0,0,1,1.69-5.14c.21-.38.49-.84,1-.63S54.65,10.52,54.65,11Z"/><path class="cls-34" d="M121.62,10.66a19.36,19.36,0,0,1-1.82,5.52c-.17.31-.43.61-.84.53s-.46-.51-.41-.84a14.91,14.91,0,0,1,1.77-5.51c.19-.33.48-.69,1-.49S121.55,10.38,121.62,10.66Z"/><path class="cls-34" d="M131.31,15.66a17.58,17.58,0,0,1,1.78-5.29c.19-.34.46-.7.94-.53a.65.65,0,0,1,.35.78,17.07,17.07,0,0,1-1.83,5.6c-.18.31-.42.6-.84.49S131.34,16.19,131.31,15.66Z"/><path class="cls-34" d="M70.7,279.74c-.37-.26-1.1.32-1.15-.42s.49-1,1.15-1,1.19.34,1.14,1S71.06,279.47,70.7,279.74Z"/><path class="cls-34" d="M87.28,279.69c.06-1.08.58-1.49,1.55-1.33a.9.9,0,0,1,.79.92c0,.71-.55.35-.86.39A12.07,12.07,0,0,1,87.28,279.69Z"/><path class="cls-42" d="M50.65,280.39c-.15.94-.25,2-1.44,1.92s-1.37-1.12-1.34-2.05.12-2,1.45-1.91S50.53,279.53,50.65,280.39Z"/><path class="cls-42" d="M21.73,280.24c0,1.38-.62,2.19-1.48,2.08-1.18-.14-1.31-1.1-1.29-2s.06-2,1.39-2S21.61,279.46,21.73,280.24Z"/><path class="cls-43" d="M51.81,50.27a1.38,1.38,0,0,1-1.36-1.49,1.42,1.42,0,0,1,2.84.13A1.37,1.37,0,0,1,51.81,50.27Z"/><path class="cls-43" d="M101.79,53.26c-.11-.76-.09-1.4,1.08-1.27.9.1,1.89,0,1.89,1.27s-1,1.26-2,1.37C101.62,54.78,101.75,54,101.79,53.26Z"/><path class="cls-44" d="M101.8,49.79c-.12-.78-.06-1.35,1-1.21.83.11,1.81,0,1.78,1.2s-1,1.08-1.83,1.19C101.63,51.1,101.73,50.43,101.8,49.79Z"/><path class="cls-45" d="M70.27,48.59c1.54,0,2.21.51,2.15,1.53-.09,1.47-1.21,1.32-2.23,1.39-1.79.13-.84-1.21-1-1.9C68.91,48.55,69.64,48.5,70.27,48.59Z"/><path class="cls-44" d="M122.41,52.18c-.43-.39-1.25.39-1.26-.54,0-.62.52-1,1.19-1a1,1,0,0,1,1.19,1C123.55,52.57,122.68,51.72,122.41,52.18Z"/><path class="cls-44" d="M141.73,52.07c.18-1.14.72-1.63,1.75-1.37a1,1,0,0,1,.75,1.1c-.07.5-.57.23-.88.25C142.84,52.1,142.31,52.07,141.73,52.07Z"/><path class="cls-44" d="M108.58,52.07c.19-1.14.73-1.63,1.76-1.37a1,1,0,0,1,.74,1.11c-.08.49-.58.22-.88.24C109.68,52.1,109.16,52.07,108.58,52.07Z"/><path class="cls-46" d="M77.77,52.83c.46,0,.75,0,.74.62,0,.91-.59,1.21-1.37,1.26-.58,0-1-.28-.94-.85C76.28,52.93,77.06,52.89,77.77,52.83Z"/><path class="cls-3" d="M101.4,322.83c-.36-.17-1,.23-.93-.44a.85.85,0,0,1,.93-.75.82.82,0,0,1,.93.74C102.34,323.15,101.63,322.54,101.4,322.83Z"/><path class="cls-35" d="M71.89,323.23c0-.72.15-1.56,1.15-1.56s1.15.87,1.14,1.63S74.06,325.05,73,325,71.9,324.08,71.89,323.23Z"/><path class="cls-47" d="M51.74,189c2.86-1.63,6-1.88,9.19-1.88q38.94,0,77.88,0c3.21,0,6.33.25,9.19,1.88a10.42,10.42,0,0,1,3.91,3.18c.12.31.32.63,0,.93a17.67,17.67,0,0,1-3.41.14c-3.39.19-6.79-.08-10.19,0s-7,.07-10.45,0c-3.7,0-7.4.16-11.11-.06-1.54-.09-3.09,0-4.63.06-6.31.06-12.61,0-18.92,0-5.64.05-11.29,0-16.94,0s-11.29,0-16.94,0c-3.17,0-6.35.06-9.53,0a2.55,2.55,0,0,1-1.75-.47.67.67,0,0,1-.16-.56A8.75,8.75,0,0,1,51.74,189Z"/><path class="cls-48" d="M151.66,192.15A25.91,25.91,0,0,0,148,189a9.55,9.55,0,0,1,5,3.66,15.78,15.78,0,0,1,3.67,9.67,15.4,15.4,0,0,1-2.87,9,14.84,14.84,0,0,1-12,6.54c-10.45.69-20.92.16-31.38.28-5.61.07-11.22,0-16.83,0a2.78,2.78,0,0,0-1.43-.12l-31.88,0a2.9,2.9,0,0,1-1.43-.12c-4.54-.17-8.6-1.45-11.67-5a.42.42,0,0,1,0-.58c.51-.08.82.26,1.13.56A15.36,15.36,0,0,0,58.63,217a4.26,4.26,0,0,1,1.18.17,8.46,8.46,0,0,0,1.33.06h77.54c.35,0,.7,0,1,0a3.63,3.63,0,0,0,.45-.1c.81-.18,1.66,0,2.48-.17a2.24,2.24,0,0,1,.37-.1,3.23,3.23,0,0,0,1.26-.33c.83-.4,1.75-.48,2.61-.8a12.66,12.66,0,0,0,6.32-5.15,14.51,14.51,0,0,0,2.1-11.48,13.79,13.79,0,0,0-2.35-5A8.54,8.54,0,0,0,151.66,192.15Z"/><path class="cls-48" d="M47.23,212.3v.53a15.19,15.19,0,0,1-4-9.05c-.47-5,1.41-9.15,4.88-12.61,1-1,2.05-2.09,3.62-2.22a25.28,25.28,0,0,0-3.65,3.2c-.73,1.3-1.73,2.42-2.4,3.77a13.64,13.64,0,0,0,.05,13.17,10.86,10.86,0,0,0,1.36,2.26C47.34,211.61,47.52,211.94,47.23,212.3Z"/><path class="cls-48" d="M58.9,217.87H92.13c.51,0,1.07-.2,1.51.25H60.41C59.9,218.13,59.34,218.33,58.9,217.87Z"/><path class="cls-49" d="M48,192.65c2,.66,4.14.17,6.21.24,3.24.12,6.48.06,9.72,0s6.47,0,9.71-.08c2.27,0,4.58,0,6.87,0,3.36,0,6.73,0,10.09,0,2.45,0,4.93.06,7.39.05,3.28,0,6.56,0,9.84-.05,2.31-.05,4.67,0,7,0,3.32,0,6.65,0,10,0l7.39.06c3.19,0,6.39-.05,9.58-.06,2.41,0,4.84,0,7.26,0,1,0,2,.12,3,.09.4.34,1.25.5.52,1.3a31.42,31.42,0,0,1-5.81.26c-5.43-.05-10.86,0-16.28,0-4.9,0-9.8,0-14.7,0q-8.73-.06-17.47,0c-5.56,0-11.12,0-16.68,0s-11.38,0-17.08,0c-5.11,0-10.23,0-15.35,0a6,6,0,0,1-1.84-.15C46.6,193.33,47.42,193,48,192.65Z"/><path class="cls-50" d="M48,192.65A3.66,3.66,0,0,0,47,194c.14.58-.24,1-.38,1.54a2.73,2.73,0,0,1-.47.74,13.8,13.8,0,0,0,2.44,15.79A14.5,14.5,0,0,0,57,216.17a21.28,21.28,0,0,0,3.82.27q38.78,0,77.55,0a31.13,31.13,0,0,0,7.45-1,3.27,3.27,0,0,1,1.16-.17c.52.24.28.47,0,.69l-2.65.8c-.4.31-.93-.06-1.33.26-.85.37-1.79-.11-2.65.27a2.9,2.9,0,0,1-1.43.12h-78a2.9,2.9,0,0,1-1.43-.12,15.52,15.52,0,0,1-11.68-4.65,4.15,4.15,0,0,0-.52-.39c-.6-1.16-1.41-2.19-2-3.38a13.86,13.86,0,0,1,0-12.89,9.62,9.62,0,0,1,2.82-3.88C48.05,192.32,48,192.48,48,192.65Z"/><path class="cls-50" d="M146.94,216l.27-.53c-.07-.59.44-.71.8-.91a13.12,13.12,0,0,0,5.17-5.17c1.84-3.28,2.64-6.8,1.34-10.53a9.15,9.15,0,0,0-1-2.71,3,3,0,0,1-.39-.65,1.92,1.92,0,0,1-.14-.33c-.09-.4-.4-.74-.26-1.19l-.73-1.06-.33-.78a12.22,12.22,0,0,1,3.91,6.55,14,14,0,0,1-.4,8.82C153.55,211.39,151.14,214.6,146.94,216Z"/><path class="cls-50" d="M59.43,217.34h80.88c-.39.43-.91.26-1.37.26q-39.07,0-78.14,0C60.34,217.6,59.82,217.77,59.43,217.34Z"/><path class="cls-50" d="M140.31,217.34c.84-.54,1.77-.15,2.65-.27C142.12,217.62,141.19,217.22,140.31,217.34Z"/><path class="cls-50" d="M143,217.07c.38-.44.88-.2,1.33-.26C143.92,217.25,143.41,217,143,217.07Z"/><path class="cls-51" d="M152.72,194l.53,1.06a1.66,1.66,0,0,1-1.37.36c-8.91,0-17.83,0-26.74,0-6.4,0-12.8,0-19.2,0q-23.49,0-47,0c-4,0-8,0-12.05,0a.72.72,0,0,1-.47-.13A3.11,3.11,0,0,1,47,194Z"/><path class="cls-52" d="M153.61,195.84a9.2,9.2,0,0,1,1.74,4.86,14,14,0,0,1-3.91,11.55,24.18,24.18,0,0,1-4.23,3.23,32.73,32.73,0,0,1-9.75,1.36c-26-.05-52,0-77.94-.07a14.68,14.68,0,0,1-9-2.58,15.06,15.06,0,0,1-5.41-7.09c-1.32-3.61-.84-7,.39-10.43a1.35,1.35,0,0,1,.63-.83.57.57,0,0,1,.2.52,16.55,16.55,0,0,0-.43,1.85,7.31,7.31,0,0,1-.3.9,3.56,3.56,0,0,0-.18,1.3,3.7,3.7,0,0,1-.1.58,7.51,7.51,0,0,0,0,2.95,3.78,3.78,0,0,1,.1.57,3.72,3.72,0,0,0,.35,1.77,2.13,2.13,0,0,1,.11.33,2.27,2.27,0,0,0,.44,1.09c.06.1.12.2.17.3a6,6,0,0,0,.89,1.5,2.28,2.28,0,0,1,.36.6A3.2,3.2,0,0,0,49,211.51a2.61,2.61,0,0,1,.62.62,4.38,4.38,0,0,0,1.2,1.19l.28.19a5.84,5.84,0,0,0,.84.56,2.84,2.84,0,0,0,1.4.6c1,.26,1.92.67,2.93.84a6.76,6.76,0,0,0,1.42.21,2.23,2.23,0,0,1,.43.1,39.25,39.25,0,0,0,4.2.08h75.12c1.39,0,2.8.09,4.19-.07a2.88,2.88,0,0,1,.42-.11,6.46,6.46,0,0,0,1.38-.19,16.92,16.92,0,0,0,4.81-1.94c.1-.08.21-.14.31-.21a13.31,13.31,0,0,0,3.69-3.56,12.1,12.1,0,0,0,2.13-8.92,9.63,9.63,0,0,0-.2-1.69,6.4,6.4,0,0,1-.33-1.11,7.84,7.84,0,0,0-.23-1.07,2.7,2.7,0,0,1-.17-.89A.49.49,0,0,1,153.61,195.84Z"/><path class="cls-53" d="M153.61,195.84l0,.27a1.48,1.48,0,0,1-1.24.34c-2.68-.1-5.35-.12-8,0-1.87,0-3.78-.12-5.66-.06-3.65.12-7.3-.16-10.94.06-1.53.09-3.08-.08-4.61-.05-4.22.09-8.44-.06-12.67.05-1.78,0-3.6-.1-5.39,0-3.91.11-7.8-.2-11.71,0-1.85.1-3.76,0-5.64-.09s-3.94.22-5.9,0c-2.37-.22-4.73,0-7.09,0-1.8,0-3.66-.43-5.45.17a1.39,1.39,0,0,0-.14.6c0,.58,0,1.16,0,1.74,0,.85,0,1.7,0,2.55,0,.45,0,.95-.58,1.13-.53-.41-.41-1-.42-1.58,0-1.14,0-2.28,0-3.42,0-.36,0-.74-.55-.61-3.24.13-6.47-.06-9.71,0-3.17-.56-3.25-.49-3.29,2.63a6.27,6.27,0,0,1-.25,2.85c-.24.25-.4.09-.56-.1a2.79,2.79,0,0,1-.21-1.37c0-.45,0-.9,0-1.36s0-.88,0-1.32c.13-1.13-.39-1.48-1.47-1.33a22.67,22.67,0,0,1-4,.09,2.35,2.35,0,0,1-1.94-.63c0-.18,0-.35,0-.53l.3-.52h.26c5.36-.12,10.72,0,16.08-.07,5.71,0,11.42,0,17.13,0,4.88,0,9.75,0,14.63,0q8.56,0,17.12,0H128.4c5.84,0,11.68,0,17.53,0,2.45,0,4.91-.1,7.37,0Z"/><path class="cls-54" d="M153.3,195.32a12,12,0,0,1-3.87.22c-4.14.11-8.29,0-12.44,0H47.84a2.37,2.37,0,0,1-1.14-.27,2.64,2.64,0,0,1,1.89-.34c5.55.11,11.11.06,16.66,0,4.85-.05,9.7.06,14.54.08,6,0,12,0,18,0,6.28-.07,12.57,0,18.85,0,4.76,0,9.52,0,14.28,0,6.52,0,13.05.16,19.57-.08.92,0,1.84.06,2.77.1A2.56,2.56,0,0,0,153.3,195.32Z"/><path class="cls-55" d="M47.5,210.17l-.27-.53c-.32-.55-.4-1.26-1.06-1.59v-.26a1.72,1.72,0,0,1-.4-1.19,11.53,11.53,0,0,1-.56-4.25.31.31,0,0,1,.34-.18c.48.31.4.85.57,1.29a16.1,16.1,0,0,0,.56,1.7c.13.34.27.66.42,1,2.87,4.95,7.22,7.09,12.88,7.08q40-.06,79.91,0c4.1,0,7.77-1.07,10.63-4.19a14.49,14.49,0,0,0,2.08-2.9,8.65,8.65,0,0,0,.62-1.55,7.24,7.24,0,0,0,.4-1.1c.16-.43.12-.94.51-1.28a.28.28,0,0,1,.36.1,9.28,9.28,0,0,1-.93,5.36,21,21,0,0,1-1.11,2.1,19.12,19.12,0,0,1-3.92,3.86h0a19,19,0,0,1-9.61,2.4q-39.12,0-78.23,0a21.85,21.85,0,0,1-8.12-1.57,15.59,15.59,0,0,0-1.63-.83h0a5.63,5.63,0,0,0-1.59-1.32l-.53-.53A5.82,5.82,0,0,0,47.5,210.17Z"/><path class="cls-56" d="M68.72,196.38c.24-.58.75-.57,1.24-.53,3.45.26,6.91-.1,10.36.07,3.19.16,6.38-.17,9.59.12,2.39.21,4.85-.27,7.25-.09a34.08,34.08,0,0,1,4.16.07c1.36.26,2.84-.31,4.28-.06s2.73-.14,4.14.07,2.93-.36,4.41-.08c1.33.24,2.65-.15,4,.08s2.93-.35,4.42-.08,2.73-.12,4.13.08,2.94-.35,4.42-.08,2.65-.15,4,.08,2.93-.35,4.42-.08,2.74-.21,4.13.11,2.57-.22,3.92-.13c2,.14,4,.08,6,.18.08.27.17.53.25.8a2,2,0,0,1-1.61.38c-3.35-.1-6.7.14-10,0a2.08,2.08,0,0,0-1.92.64c-.32.29-.56.08-.72-.18a.83.83,0,0,0-.87-.39c-7.46-.08-14.93.11-22.38-.07-.73-.21-.83.78-1.45.77-.42-.71-1.09-.73-1.82-.77-4.73-.25-9.48.28-14.21-.25-2.58-.55-5.16-.1-7.74-.06a3.57,3.57,0,0,1-.65.06c-2.61-.52-5.23-.13-7.84-.06a3.49,3.49,0,0,1-.65.06c-2.63-.51-5.27-.14-7.9,0a3.2,3.2,0,0,1-.69,0,12.57,12.57,0,0,0-3.12-.25A1.94,1.94,0,0,1,68.72,196.38Z"/><path class="cls-57" d="M52.27,214.15a27.81,27.81,0,0,0,5.83,1.46c.52,0,1,.13,1.57.13q40.2,0,80.41,0a16,16,0,0,0,7.46-1.81,1.91,1.91,0,0,1,1-.3c-1.42,1.33-3.24,1.69-5,2.13-.39.31-.93-.06-1.32.26h-.27c-1.39.38-2.84-.12-4.24.27H62.08c-1.39-.39-2.85.11-4.24-.27h-.27c-.39-.32-.93.05-1.32-.26-1.15.07-2.1-.62-3.18-.8-.26-.25-.65-.31-.85-.62Z"/><path class="cls-58" d="M140.05,197.93c0-1.7,1.4-1.12,2.09-1.1,2.67.08,5.34.12,8,0,1.21-.07,2.44.07,3.66.12a1.59,1.59,0,0,1,.26,1.06,2.36,2.36,0,0,1-1.76.41h-7.68a6.6,6.6,0,0,0-2.83.27c-.67-.08-1.26.63-2,.22C139.49,198.47,140.11,198.27,140.05,197.93Z"/><path class="cls-59" d="M46.13,196.37a18,18,0,0,0,5.72.12c2-.26,2-.21,2,1.75a1.13,1.13,0,0,1-.7.34,57.47,57.47,0,0,1-6.82,0,1,1,0,0,1-.69-.35A3.08,3.08,0,0,1,46.13,196.37Z"/><path class="cls-60" d="M144.29,198.19a4.15,4.15,0,0,1,2.31-.21c2.49,0,5,0,7.48,0,.1.36.19.71.29,1.06a.7.7,0,0,1,0,.85,54,54,0,0,0-9.17-.08,1.78,1.78,0,0,1-1-.11C143.74,199.15,144.51,198.71,144.29,198.19Z"/><path class="cls-61" d="M45.64,198.24h8.21c0,.44,0,.88,0,1.32a1.29,1.29,0,0,1-1,.37c-2.49-.11-5,.16-7.46,0a.68.68,0,0,1-.06-.88Z"/><path class="cls-62" d="M154.33,199.82l0-.79a11.81,11.81,0,0,1-.73,8.85c-.4.78-.43,1.84-1.4,2.3-.08-.06-.1-.12-.08-.18s.06-.09.08-.09c.36-1.27,1.27-2.28,1.63-3.57a12.49,12.49,0,0,0,.48-4.16A2.06,2.06,0,0,1,154.33,199.82Z"/><path class="cls-57" d="M152.24,209.91v.27a8.74,8.74,0,0,1-3.71,3.44Z"/><path class="cls-57" d="M45.39,202.18c-.23,1.56.57,3,.52,4.55-.09.12-.18.11-.27,0v-.27a8.06,8.06,0,0,1-.53-1.86v-.53a8.1,8.1,0,0,1,0-3.18v-.53a.28.28,0,0,1,.4.08A1.52,1.52,0,0,1,45.39,202.18Z"/><path class="cls-63" d="M57.84,216c1.41.14,2.86-.29,4.24.27C60.67,216.14,59.22,216.57,57.84,216Z"/><path class="cls-63" d="M137.66,216.28c1.38-.56,2.83-.13,4.24-.27C140.52,216.57,139.07,216.14,137.66,216.28Z"/><path class="cls-57" d="M49.35,212.3a1.51,1.51,0,0,1,1.59,1.32C50.15,213.5,49.78,212.86,49.35,212.3Z"/><path class="cls-57" d="M47.5,210.17a1.52,1.52,0,0,1,1.32,1.6C48.26,211.34,47.62,211,47.5,210.17Z"/><path class="cls-57" d="M46.17,208.05c.95.14,1.11.8,1.06,1.59C46.59,209.31,46.52,208.59,46.17,208.05Z"/><path class="cls-63" d="M45.11,200.89v3.18A4.17,4.17,0,0,1,45.11,200.89Z"/><path class="cls-63" d="M45.11,204.6a4,4,0,0,1,.53,1.86C45,206,45.11,205.27,45.11,204.6Z"/><path class="cls-57" d="M50.94,213.62c.52,0,1.06-.08,1.33.53h0a.36.36,0,0,1-.53,0A.82.82,0,0,1,50.94,213.62Z"/><path class="cls-63" d="M51.74,214.16h.53l.8.79A1.64,1.64,0,0,1,51.74,214.16Z"/><path class="cls-63" d="M45.64,206.73h.27l.26,1.06C45.69,207.59,45.62,207.18,45.64,206.73Z"/><path class="cls-63" d="M56.25,215.75c.44.06,1-.18,1.32.26C57.13,216,56.62,216.19,56.25,215.75Z"/><path class="cls-63" d="M142.17,216c.37-.44.88-.2,1.32-.26C143.12,216.19,142.61,216,142.17,216Z"/><path class="cls-63" d="M45.34,200.36h-.23c.06-.45-.17-1,.26-1.33l0,.79A.38.38,0,0,1,45.34,200.36Z"/><path class="cls-64" d="M154.12,202.22c-.05.45.11.94-.27,1.33a1.35,1.35,0,0,1-1,.3,67.89,67.89,0,0,0-8.07,0c-1.52,0-3.09-.21-4.62-.11-4,.25-8-.29-12,.13-1.26.13-2.54-.16-3.83-.14-3.35,0-6.7-.1-10,0-3.88.14-7.75-.28-11.63.08-1.6.15-3.26-.21-4.89-.11-4.09.26-8.19-.26-12.29.14-1.27.12-2.54-.17-3.83-.14-3.39.06-6.78.08-10.18,0-1.89-.06-3.78.31-5.67,0a5.67,5.67,0,0,0-2.06.43c-.78-1.4-.46-2,1-2a2.71,2.71,0,0,0,1-.14,3.12,3.12,0,0,1,1.84,0,2.08,2.08,0,0,1,.85.49c.38-.28.21-.69.26-1.05a1,1,0,0,1,1-.21,2.42,2.42,0,0,0,3.48.28c.45,0,.9,0,1.35.08.3.18.47.63,1,.47a10.29,10.29,0,0,1,2.21-.28c1.07.4,2.14.71,3.07-.32a.88.88,0,0,1,.88-.17c.34.14.32.59.65.74a1.88,1.88,0,0,0,.85-.09,15.17,15.17,0,0,1,3.3,0,2.5,2.5,0,0,0,1.12.08l.37-.07a4.51,4.51,0,0,1,1.27,0l.46.12A.48.48,0,0,0,90,202c.18-.4,0-.91.46-1.21a.82.82,0,0,1,.73,0c1.47,1.71,1.58,1.73,3.8.65a2.37,2.37,0,0,1,1.21.06c1.13.92,2.35.65,3.58.27,1,.14,1.91.06,2.86.2a5.25,5.25,0,0,1,.57.13,3.47,3.47,0,0,0,1-.13,9.18,9.18,0,0,1,2-.07c.94.15,1.9.56,2.79-.16.46-.25.91-.57,1.46-.19,1.65,1,2.13.92,3.37-.78.86-.34,1.18.24,1.47.87.13.15.2.37.45.46,0-.36-.2-.76.16-1,.73-.46,1.34-.41,1.78.41.93,1.19,2.07.6,3.17.36.23-.41.54-.69,1-.52a2.84,2.84,0,0,0,3.24.6c.43-.57,0-1.39.56-1.9a1,1,0,0,1,1,0c.46.34.37.86.45,1.32,0,.27-.1.67.39.68a2.67,2.67,0,0,1,1.82-.21,4.15,4.15,0,0,0,3.38.07c.19-.43,0-1.18.69-1.19s.72.83,1,1.29c.24.21.51.12.77.06a3.93,3.93,0,0,1,1.49,0,2,2,0,0,0,1.09,0,4,4,0,0,1,1.33,0,2.64,2.64,0,0,0,1.22.12c.34-.25.62-.65,1.14-.49a3.86,3.86,0,0,0,3.37.32c2.64-.15,5.29-.05,7.93-.06a2.21,2.21,0,0,1,1.15.24Z"/><path class="cls-58" d="M90.48,200.91c-.11.52.21,1.12-.28,1.57-.64-.83-.3-1.79-.36-2.69-.09-1.36-.3-1.61-1.59-1.32a1.79,1.79,0,0,1-1.37-.21,5.32,5.32,0,0,0-2.8,0c-1.73.3-1.72.3-1.75,2.12,0,.72.18,1.48-.36,2.11-.4-.27-.23-.68-.28-1a1.94,1.94,0,0,1-.34-1.36c-.12-.54.38-1.41-.75-1.41a2.9,2.9,0,0,0-3,.25,4.3,4.3,0,0,1-1-.13c-.63-.59-1.46-.08-2.14-.38a6.24,6.24,0,0,0-1.78,0,3.44,3.44,0,0,0-2.72.49,3,3,0,0,1-1.23-.11v-1.86c1.23-.54,2.5-.19,3.75-.22.34,0,.69.19,1-.05H74c2.65.15,5.3,0,8,0h.53c2.65.15,5.3,0,8,0H91c2.65.15,5.3,0,8,0a96.31,96.31,0,0,0,11.27.2c1.22,0,2.45.09,3.68,0,.78,0,1,.31,1,1-.09.31.21.63,0,.94-.55.32-1-.17-1.49-.21a4.51,4.51,0,0,0-2.44-.28,2.39,2.39,0,0,0-2.22,0,5.11,5.11,0,0,0-2.62.39,1.59,1.59,0,0,1-.78-.09c-1.29-.48-1.67-.24-1.75,1-.06.92.27,1.91-.34,2.77l-.28-.25a2.31,2.31,0,0,1-.36-1.67c0-.3,0-.61,0-.92,0-.82-.39-1.09-1.15-1-.57.06-1.14.07-1.71.11a7,7,0,0,0-2.83-.36,2.62,2.62,0,0,0-2.42,0,3.33,3.33,0,0,0-3.09,1c-.35-.06-.55.07-.56.46A1.57,1.57,0,0,1,90.48,200.91Z"/><path class="cls-65" d="M57.87,196.64c3.26-.29,6.52,0,9.77,0a1.58,1.58,0,0,1,.22,1.69c-.26.47-.75.56-1.18.76a4.11,4.11,0,0,0-3.86-.41,1.19,1.19,0,0,1-.89,0c-.23-.42-.42-.36-.73,0-1.08,1.22-1.09,1.2-2.09,0-.22.18-.11.59-.44.68-1.16.73-2.34,1.34-3.73.63-.14-.64.38-.53.7-.62-.89,0-1-.59-1-1.32s.46-1.08,1.18-1.14A9.14,9.14,0,0,0,57.87,196.64Z"/><path class="cls-66" d="M45.89,203.56c-.38-.39-.22-.88-.26-1.34l.12-.18c.16-.08-.07,0,.1-.09,2.5-.66,5-.31,7.55-.2.22,0,.33.27.45.46l.28.25c1.08-.66,2.27-.22,3.4-.35h.62a1.34,1.34,0,0,0,1-.25c.38-.33.45-1.06,1.12-1s.72.66,1.1,1c.07-.28,0-.45.06-.63.46-.72,1-.87,1.68-.24a3,3,0,0,1-.07,2.16,1.31,1.31,0,0,1-1.21.38c-3.29-.27-6.58.19-9.88-.08C49.94,203.37,47.91,203.67,45.89,203.56Z"/><path class="cls-67" d="M45.34,200.36c0-.18,0-.36.07-.54,1.74-.56,3.54-.2,5.3-.32a27.34,27.34,0,0,1,3.13.06c0,.45,0,.89,0,1.33-2.09.47-4.21.13-6.32.21a1.81,1.81,0,0,0-1.87,1.11h0l-.24,0C45.38,201.57,45.36,201,45.34,200.36Z"/><path class="cls-68" d="M57.82,202.47H54.13c0-1.68,0-3.36-.06-5,0-.84.31-1.12,1.09-1s1.84-.26,2.71.24c-.39,1-1.22.42-1.84.48s-1.16,0-1.17,1,.48,1,1.16.95c.4,0,.87-.17,1.29.29-.71.63-1.67,0-2.33.5.25,1.2.83,1.94,2.21,1.83C57.55,201.63,58.16,201.77,57.82,202.47Z"/><path class="cls-69" d="M45.66,202.21c-.2-.94.18-1.47,1.13-1.43,2.35.09,4.71-.16,7.06.11v1.32c-.12-.05-.24-.16-.36-.16A41.81,41.81,0,0,0,45.66,202.21Z"/><path class="cls-70" d="M67.65,198.5c0-.62,0-1.24,0-1.86.06-.26.14-.53.48-.49s.37.43.36.71c0,1.87,0,3.74,0,5.61-.31,0-.61.06-.81-.26-.53-.62-.36-1.37-.38-2.09A2.12,2.12,0,0,1,67.65,198.5Z"/><path class="cls-71" d="M68.72,198.77c.36-.16.72-.48,1.06,0a5.32,5.32,0,0,1-.07,2.63h-1Z"/><path class="cls-72" d="M73.48,196.64c-1.55.59-3.17.11-4.76.27v-.53A20.51,20.51,0,0,1,73.48,196.64Z"/><path class="cls-5" d="M153,205.93a12.48,12.48,0,0,1-9.88,7.45,53.41,53.41,0,0,1-8.85.26q-37.49,0-75,0a13.39,13.39,0,0,1-12.1-6.52,2.12,2.12,0,0,1-.53-1.19,9.18,9.18,0,0,1,4.52-.53,50.18,50.18,0,0,0,7.15,0c1.24-.12,2.46.22,3.7.14,4.67-.27,9.35-.09,14-.09s9.36,0,14,0h11.64c4.71,0,9.44,0,14.16,0,3.79,0,7.59,0,11.37,0,4.63,0,9.27,0,13.9,0a106.14,106.14,0,0,0,10.85,0C152.44,205.36,153,205.28,153,205.93Z"/><path class="cls-73" d="M153,205.93c-.71-.67-1.4.09-2.13,0-2.19-.2-4.39.17-6.59-.25a15.4,15.4,0,0,0-2.48.24c-4.08,0-8.17.09-12.25-.06-2.45-.1-4.9.12-7.35.05-2.18-.05-4.36-.1-6.55,0-3.55.11-7.11,0-10.66,0H96.75c-3.11,0-6.23.09-9.33,0-2.63-.1-5.26.06-7.88,0-3,0-6.05.09-9.07,0-2.81-.12-5.61.08-8.41,0-3,0-6,.09-8.94,0-2.15-.09-4.28.06-6.42,0-.28-.18-.28-.47-.29-.76,0-.79.67-.82,1.21-.92a10.3,10.3,0,0,1,1.84-.06c4.52,0,9,.12,13.56-.12a2.07,2.07,0,0,1,.73.15c3.62-.13,7.24,0,10.85,0,6.76,0,13.51,0,20.27,0,15.09,0,30.19,0,45.29,0,3.84,0,7.68,0,11.52,0a2.34,2.34,0,0,1,1.88.41C153.29,205,153.44,205.58,153,205.93Z"/><path class="cls-74" d="M153.56,204.6c-7.27.1-14.55,0-21.82.06-6.17,0-12.34,0-18.5,0-8.07,0-16.14,0-24.21,0s-16,0-24.08-.06c-.46,0-1,.16-1.32-.37l.07-.16c.75-1.24,2-.88,3-.74,2.24.32,4.44-.23,6.68,0,3.83.35,7.67-.17,11.53.13,1.82.15,3.76-.26,5.63-.12,3.84.29,7.68-.26,11.54.13,1.78.18,3.66-.23,5.5-.11,3.84.24,7.68-.2,11.53.1,1.83.15,3.76-.25,5.64-.12,3.75.26,7.5-.27,11.27.14,1.7.18,3.48-.17,5.25-.11,4.18.16,8.39-.33,12.57.2A1.65,1.65,0,0,1,153.56,204.6Z"/><path class="cls-74" d="M63.21,204.3a2.91,2.91,0,0,1-1.66.31H48.21c-.66,0-1.33,0-1.8.57a2.88,2.88,0,0,1-.52-1.61c.42-.49,1-.28,1.49-.29,3.12,0,6.24,0,9.36,0l6.11.05A.91.91,0,0,1,63.21,204.3Z"/><path class="cls-75" d="M154.33,199.82c0,.78,0,1.57,0,2.36l-.23,0h0c-.19-1.07-.93-1.18-1.84-1.13a31.41,31.41,0,0,1-5.4,0c-.85-.11-1.38.6-2.16.53-.24-.93-1-1.22-1.78-1.54a.9.9,0,0,1-.61-1,.84.84,0,0,1,.86-.67.81.81,0,0,1,1,.66.39.39,0,0,1-.07.24.55.55,0,0,0,.66.28c2.82-.47,5.67-.15,8.5-.24A1.26,1.26,0,0,1,154.33,199.82Z"/><path class="cls-76" d="M126.76,200.1l-1,0c-.45-.29-.24-.83-.45-1.2-.26.75.49,1.8-.67,2.26a1.22,1.22,0,0,1-.3-1c0-.93-.43-1.35-1.3-1.45-.34-.18-.69-.35-1.07-.07a3.18,3.18,0,0,1-1,.22,2.91,2.91,0,0,0-3.39,0,2.11,2.11,0,0,1-.94-.29c-.52-.43-1.24-.78-.74-1.66.72-.46,1.45,0,2.18,0,4.6-.05,9.2,0,13.8,0l7.21,0c.53.86-.16,1.22-.68,1.66a1.49,1.49,0,0,1-.73.28c-.36,0-.63-.31-1-.42a1.79,1.79,0,0,0-2.38,1.11c-.59.13-.87-.57-1.42-.54a2.48,2.48,0,0,0-3.24-.16c-.28-.05-.58,0-.84-.1-1.11-.45-1.47-.28-1.72.8A.79.79,0,0,1,126.76,200.1Z"/><path class="cls-77" d="M115.84,196.94c-.35.86.78.91.84,1.55-.58.79-.15,1.88-.77,2.66-.29.71.58.7.78,1.17a1.08,1.08,0,0,1-1.59-.38c-.13-1.05-.61-2.09-.21-3.18-.23-.28-1.11-.52,0-.85C115.26,197.67,114.92,196.66,115.84,196.94Z"/><path class="cls-78" d="M138.2,198.49c.14-.59,1.13-.74.83-1.56.95-.28.57.77,1,1,.18.08.48,0,.46.33s-.56.16-.64.5c.54.81,0,1.79.45,2.62.16.35.54.65.27,1.1a1.74,1.74,0,0,1-1.35-.26c-.6-.34-.6-.93-.61-1.5A3.53,3.53,0,0,0,138.2,198.49Z"/><path class="cls-72" d="M82,196.64a4,4,0,0,1-2.54.24c-1.8-.06-3.63.34-5.41-.24A29.4,29.4,0,0,1,82,196.64Z"/><path class="cls-72" d="M98.94,196.64a4,4,0,0,1-2.53.24c-1.81-.06-3.64.34-5.42-.24A29.4,29.4,0,0,1,98.94,196.64Z"/><path class="cls-72" d="M90.46,196.64a4,4,0,0,1-2.54.24c-1.81-.06-3.64.34-5.42-.24A29.47,29.47,0,0,1,90.46,196.64Z"/><path class="cls-79" d="M144.05,199.25a.7.7,0,0,0-.48-.58.77.77,0,0,0-1.1.36c-.2.49.23.69.63.79,1,.26,1.91.54,1.77,1.85.09.31-.15.41-.34.53a2.55,2.55,0,0,1-3.16-.52c-.26-.83.3-.72.78-.64s.7.57,1.28.26c-.58-.76-1.88-.69-2.05-1.83a.89.89,0,0,1,.29-.92,2.34,2.34,0,0,1,2.62-.36c.22.29.56.58.44,1S144.29,199.28,144.05,199.25Z"/><path class="cls-80" d="M141.67,198.55l-.09,1c-.78.1-1.3.42-1.22,1.33a.87.87,0,0,1-.32.81,5.5,5.5,0,0,1-.17-2.93C140.54,199.24,141,197.73,141.67,198.55Z"/><path class="cls-81" d="M144.53,202.2l.34-.53c.36-.21.09-.9.78-.9,2.46,0,4.91,0,7.37,0,1.22,0,1.16.66,1.06,1.48Z"/><path class="cls-78" d="M63.21,204.3c-.35-.26-.29-.66-.36-1v-2.39a2.06,2.06,0,0,1,0-2.39c.85-.93,2.81-.65,3.73.55.54.57.34,1.27.32,1.93a1.72,1.72,0,0,1-.86,1.23,2.62,2.62,0,0,1-2.24.08,5.33,5.33,0,0,0-.1,1.78.18.18,0,0,0-.07.16Z"/><path class="cls-82" d="M110.31,201.69c-.46-.36-.68.14-1,.26-.48-.27-.82.19-1.24.23a1.37,1.37,0,0,1-1.65-1.12c0-1,.65-1,1.33-1.06s1.28.21,1.6-.57a.81.81,0,0,1,.94-.29,5.61,5.61,0,0,0,1.91,1.1c.62.19,1.23.55.9,1.31s-1,.76-1.7.51C111,201.93,110.76,201.56,110.31,201.69Z"/><path class="cls-83" d="M129.47,198.82c1.38-1.2,2.1-1.21,3.37,0a1.45,1.45,0,0,1,.32,1.58,3.48,3.48,0,0,0,0,1.92c-1.24-.09-2.55.73-3.69-.33a1.37,1.37,0,0,1-.08-1.62c.52-.7,1.38-.77,2.29-1-.66-.54-1-.1-1.38,0C129.66,199.56,129.64,199.54,129.47,198.82Z"/><path class="cls-83" d="M117.54,198.81c1.39-1.2,2.11-1.2,3.39,0a2.48,2.48,0,0,1,.33,2.22c-.05.42-.3.82-.07,1.26-1.23-.25-2.7,1-3.72-.6-.21-1.61-.19-1.63,2-2.4a1.48,1.48,0,0,0-1.09.09C117.71,199.55,117.71,199.55,117.54,198.81Z"/><path class="cls-84" d="M109.52,199.6c0,.5-.1.85-.71.81a6,6,0,0,0-1,0c-.37,0-.82-.17-1.09.23s0,.59.17.84a1.32,1.32,0,0,0,1.29.41c.37,0,.86-1,1.16.06a2.51,2.51,0,0,1-2.86.24,1.79,1.79,0,0,1-1.13-1.85c.17-.67.15-1.42.88-1.81a2.26,2.26,0,0,1,2.57-.31C109.52,198.4,109.44,199,109.52,199.6Z"/><path class="cls-78" d="M91.28,199.35c1-1.51,1.48-1.67,3.15-1.12,1.32.46,1.14,1.56,1.12,2.59a1,1,0,0,1-.6.86c-1.63,1.36-3,1.07-3.71-.79A1.08,1.08,0,0,1,91.28,199.35Z"/><path class="cls-83" d="M77.5,198.78a2.06,2.06,0,0,1,3.11-.24,1.18,1.18,0,0,1,.52,1.47c-.18.62-.74.65-1.26.7a2.57,2.57,0,0,0-1.14.14c-.12,1,.54.65,1,.57s.91-.35,1.18.29c-1.08,1-1.77,1.08-3.23.25a1.87,1.87,0,0,1-.79-1.46C76.88,199.85,76.7,199.14,77.5,198.78Z"/><path class="cls-78" d="M69.71,201.43a3.52,3.52,0,0,1,.07-2.63,2.29,2.29,0,0,1,2.91-.57c1.31.46,1.13,1.56,1.12,2.59a1,1,0,0,1-.6.86C71.72,202.91,70.94,202.86,69.71,201.43Z"/><path class="cls-79" d="M96.82,198.22a3,3,0,0,1,2.9.3c.29.2.46.47.24.78s-.53.25-.84.18-.79-.55-1.44-.34c.76.83,2.14.63,2.51,1.8a.8.8,0,0,1-.45,1c-1.63.85-2.4.79-3.49-.26-.18-.8.3-.76.81-.61s.67.6,1.23.2c-.59-.86-2.19-.6-2.26-2A1.06,1.06,0,0,1,96.82,198.22Z"/><path class="cls-79" d="M134.11,199.52c.24-.47-.22-1.48.42-1.4,1,.12,2.38-.82,3.1.69.54.51.39,1.17.41,1.8a2.39,2.39,0,0,1-.33,1.61c-.3.38-.59.36-.88,0a2.37,2.37,0,0,1-.33-1.62c-.1-.53.28-1.49-.6-1.41s-.47,1-.53,1.65a1.74,1.74,0,0,1-.38,1.37c-.18.3-.47.27-.76.26C134.16,201.49,133.65,200.52,134.11,199.52Z"/><path class="cls-85" d="M110.31,201.69c0-.45.2-.7.66-.41.21.14.34.43.57.53a.94.94,0,0,0,1.36-.38c.24-.56-.32-.69-.74-.86-.71-.27-1.62-.27-1.83-1.27-.3-.6,0-.88.54-1.08a2.28,2.28,0,0,1,2.64.3c.29.19.45.46.25.77s-.45.2-.72.14-.71-.55-1.29-.27c.55.76,2,.52,2,1.73a1.3,1.3,0,0,1-1,1.52A2.2,2.2,0,0,1,110.31,201.69Z"/><path class="cls-77" d="M87,197.94c.45,0,.76.4,1.38.13,1.08-.48,1.81.15,1.85,1.4,0,1,0,2,0,3h-.54c-.52-.75-.27-1.62-.41-2.43-.06-.39-.11-.87-.59-.91s-.66.47-.73.91c-.12.72.15,1.51-.34,2.17-.3.39-.59.34-.87,0a2.22,2.22,0,0,1-.35-1.56c0-.54,0-1.08,0-1.62S86.34,198.05,87,197.94Z"/><path class="cls-83" d="M122,198.5c.06-.24.11-.5.44-.5s.37.26.43.5a2.39,2.39,0,0,1,.3,1.5c.07,1.39.21,1.5,1.55,1.22a6,6,0,0,0,.18-2.3c0-.42-.09-.92.57-.95a14.76,14.76,0,0,1,0,4.5,4.43,4.43,0,0,0-1.5,0,1.43,1.43,0,0,1-1.93-1A2.71,2.71,0,0,1,122,198.5Z"/><path class="cls-86" d="M117.54,198.81c.13.65.45.55.8.2a1.27,1.27,0,0,1,.91-.45c.47,0,.87.21.88.76s-.41.48-.74.48c-1.27,0-2,.52-1.92,1.88-.25-1-1-.52-1.56-.53,0-.59,0-1.19,0-1.79s.25-.85.81-.87C117,198.51,117.34,198.47,117.54,198.81Z"/><path class="cls-87" d="M140,201.69c0-.38,0-.77,0-1.16,0-1.36.14-1.44,1.53-1,.33.67,1,.82,1.62,1,.38.11.79.18.85.68a.53.53,0,0,1-.31.53,1.06,1.06,0,0,1-1.23-.09c-.37-.27-.76-1.18-1.14,0-.58,0-.44.62-.78.8C140.73,202,140.22,202,140,201.69Z"/><path class="cls-88" d="M113.77,200.89a2.8,2.8,0,0,0-1.75-1c-.35-.08-.71-.15-.82-.55s.11-.47.36-.6a.89.89,0,0,1,1.09.1c.25.22.43.65.85.43s0-.47,0-.71c.56-.5.84.6,1.38.24.41,1,.11,2.12.21,3.18C114.82,201.39,114.69,200.64,113.77,200.89Z"/><path class="cls-69" d="M86.72,200.62v1.6h-4a1.07,1.07,0,0,1-.14-1.31C83.93,199.88,85.33,200.31,86.72,200.62Z"/><path class="cls-89" d="M96.27,199.3c.19.93,1,1,1.71,1.24.36.13.8.16.91.64.07.32-.14.48-.4.6a1,1,0,0,1-1.23-.1c-.35-.3-.68-1.2-1,0H95l.32-.81a3.47,3.47,0,0,0,.1-1.16C95.44,199.08,95.77,199,96.27,199.3Z"/><path class="cls-90" d="M99.74,202a1.86,1.86,0,0,0,.25-1c-.23-.44,0-.73.39-.71.84.06,1.71-.25,2.53.16v1.85C101.85,202.11,100.76,202.46,99.74,202Z"/><path class="cls-91" d="M82.77,200.89v1.32c-.2.32-.5.29-.8.26,0-1,0-2-.06-3s.07-1.6,1.26-1.4a4.66,4.66,0,0,0,.91,0c.57.86-.37.94-.69,1.34S83.22,200.47,82.77,200.89Z"/><path class="cls-92" d="M87.59,202.22c0-.74,0-1.49,0-2.23s.31-1.33,1.07-1.38c.93-.07,1,.72,1,1.37.05.83,0,1.67.06,2.5l-.29-.26c-.44-.34-.12-1.31-.87-1.27-.58,0-.23,1-.7,1.26Z"/><path class="cls-93" d="M103.19,202.47c0-1.14,0-2.28,0-3.42,0-.35,0-1.13.28-1,.63.35,1.54-.85,1.88.4-.29.7-1.27,1.07-1,2.05a2.17,2.17,0,0,1-.38,1.66C103.78,202.52,103.49,202.49,103.19,202.47Z"/><path class="cls-94" d="M74.53,198.23c.55-.54,1.22.2,1.87-.19.29-.17.25.42.21.7-1.23.79-.79,2.1-1,3.2a1.52,1.52,0,0,1-.29.53c-.64.12-.8-.25-.8-.78a2.68,2.68,0,0,1-.35-1.85A2.05,2.05,0,0,1,74.53,198.23Z"/><path class="cls-94" d="M126.76,200.1c0-.26,0-.53,0-.78,0-.42-.14-1.2.17-1.18a13.54,13.54,0,0,1,1.77-.09c.29.06.15.44.1.69-1.22.7-.8,1.94-1,3-.14.24-.08.56-.29.76-.54.07-.79-.13-.77-.7S126.77,200.65,126.76,200.1Z"/><path class="cls-95" d="M80.89,201.71c-.3-.3-.57-.18-.92,0-1.11.49-1.56.21-1.91-1.06a.45.45,0,0,1,.24-.12,5.65,5.65,0,0,1,2,0c.84.29.64-1.14,1.43-.7,0,.53,0,1.07,0,1.6C81.39,201.42,81.08,201.39,80.89,201.71Z"/><path class="cls-96" d="M134.11,199.52l.12,2.95c-.08-.09-.2-.17-.24-.28-.2-.46.24-1.38-.61-1.28-.49.05-.1.9-.26,1.37-.52-1.13-.06-2.34-.28-3.5A1,1,0,0,1,134.11,199.52Z"/><path class="cls-90" d="M104,202.21v-1.86a2.24,2.24,0,0,1,1.63,0c-.16.81.54,1.23.84,1.84Z"/><path class="cls-97" d="M122,198.5c0,1,0,1.95,0,2.92-.65-.08-.84.29-.83.86-.51-1.13-.08-2.33-.26-3.48C121.19,198.39,121.61,198.53,122,198.5Z"/><path class="cls-98" d="M127.56,202.47l.07-.8a1.69,1.69,0,0,0,.09-.77c0-.44,0-.93.52-1.05s1.13-.3,1.42.43c-.42.51-.16,1.11-.23,1.67C128.75,201.93,128.05,201.84,127.56,202.47Z"/><path class="cls-69" d="M136.83,200.36v1.86H135v-1.59A1.66,1.66,0,0,1,136.83,200.36Z"/><path class="cls-99" d="M75.32,202.47l.07-.54c.2-1.74.39-1.88,1.77-1.3.17.44.34.88.5,1.33Z"/><path class="cls-69" d="M87.8,202.21a4.56,4.56,0,0,1,0-.64c.07-.45-.27-1.17.58-1.17s1.08.43,1,1.18c0,.21,0,.43,0,.64Z"/><path class="cls-100" d="M66,202.21l.59-1.07c.29-.39-.27-1.62,1-1v2.12A4.58,4.58,0,0,0,66,202.21Z"/><path class="cls-81" d="M137.71,202.22v-1.59a.88.88,0,0,1,1.26,0l.28,1.6Z"/><path class="cls-101" d="M74.52,199.83v1.86a2.33,2.33,0,0,1-1.31,0c.1-.27.21-.54.32-.81C73.8,200.47,73.25,199.28,74.52,199.83Z"/><path class="cls-102" d="M91.28,199.35c0,.52,0,1,0,1.54l-.76,0c0-.5,0-1,0-1.52,0-.26,0-.54.37-.56S91.22,199.11,91.28,199.35Z"/><path class="cls-103" d="M125.45,202.47V198c.57.65.13,1.44.3,2.15C125.6,200.9,126,201.75,125.45,202.47Z"/><path class="cls-104" d="M102.91,200.37a3.88,3.88,0,0,1-2.31.14c-.41-.14-.56,0-.61.41a3.79,3.79,0,0,0-2-1.07c-.34-.11-.7-.15-.81-.55s.11-.47.36-.6a.83.83,0,0,1,1.08.11c.32.33.64.67,1.11.42.28-.15,0-.47,0-.71a6.25,6.25,0,0,1,2.61-.27c.45,0,.58.29.58.69Z"/><path class="cls-105" d="M83,199c.28-.43,1.29-.11,1.07-1a3.54,3.54,0,0,1,2.92-.05c-.37.29-.18.73-.28,1.09C85.48,199.58,84.24,199.91,83,199Z"/><path class="cls-106" d="M77.16,200.63c-1.1-.26-1.6.3-1.77,1.3,0-.65,0-1.3,0-2,0-.86.36-1.32,1.26-1.24a.94.94,0,0,1,.89,0A3.94,3.94,0,0,0,77.16,200.63Z"/><path class="cls-107" d="M96.27,199.3c-1.29-.08-.44,1.19-1,1.57a3.1,3.1,0,0,0-.84-2.64,1.56,1.56,0,0,1,2.39,0C96.63,198.58,96.45,198.94,96.27,199.3Z"/><path class="cls-92" d="M105.6,200.35a1.87,1.87,0,0,1-1.63,0c-.33-1.18.43-1.57,1.35-1.85l.87,0Z"/><path class="cls-108" d="M74.52,199.83c-.88-.18-.64.71-1,1a3.14,3.14,0,0,0-.84-2.64,1.63,1.63,0,0,1,1.84,0C74.52,198.76,74.52,199.3,74.52,199.83Z"/><path class="cls-109" d="M110.87,198.22l-.54,1.08c-.31,0-.62,0-.81.3l-.76-1.38A1.25,1.25,0,0,1,110.87,198.22Z"/><path class="cls-110" d="M81.7,199.83c-1,1.18-2.39.71-3.64.8.36-.42.83-.21,1.24-.22,1.89,0,1.9,0,1.31-1.87C81.71,198.11,81.71,198.11,81.7,199.83Z"/><path class="cls-111" d="M57.82,202.47c0-.84-.65-.56-1.06-.57-2-.07-2-.06-1.78-2.07,1-.14,2.15.44,2.93-.72.12-.17.66-.06,1-.08,1,.33,1.21,1,.74,1.92a3.29,3.29,0,0,1-1.25,1.51Z"/><path class="cls-85" d="M58.4,202.46a6.14,6.14,0,0,1,.66-1.11,1.41,1.41,0,0,0-.15-2.32c-.14-.31-.28-.62-.45-1,1.17-.22,1.08,1,1.71,1.34.47-.22.53-.77.86-1.1s.75-.67.8.21c-.28,1-1,1.89-.3,2.95l.42.92c-.7.3-.94-.17-1.16-.6-.37-.73-.71-1-1.15,0A1,1,0,0,1,58.4,202.46Z"/><path class="cls-112" d="M61.53,201.45c-1.4-1.13-.47-2,.3-2.95h1v2.39C62.41,201.07,61.78,200.8,61.53,201.45Z"/><path class="cls-113" d="M67.65,200.09c-.89-.18-.67.72-1,1,0-.7,0-1.39,0-2.09s.64-.51,1.07-.55Z"/><path class="cls-114" d="M124.7,201.22a.94.94,0,0,1-1.24.63c-.53-.14-.66-.62-.65-1.14,0-.74,0-1.47,0-2.21C124.59,198.51,124.59,198.51,124.7,201.22Z"/><path class="cls-115" d="M129.66,200.28c-1.49-.73-1.81.25-2,1.39,0-.57,0-1.14,0-1.71,0-.9.37-1.29,1.26-1.22.21,0,.45-.25.62.08.14.66.46.52.82.18a1.14,1.14,0,0,1,1.18-.4.75.75,0,0,1,.61.76c0,.44-.36.46-.67.43A3.35,3.35,0,0,0,129.66,200.28Z"/><path class="cls-112" d="M139,200.62H137.7c0-.61,0-1.22-.07-1.82a.62.62,0,0,1,.57-.32C139.7,198.76,138.76,199.9,139,200.62Z"/><path class="cls-116" d="M63.69,200.13c-.11-.82.12-1.55,1.11-1.51s1.12.89,1.1,1.66-.14,1.63-1.15,1.62S63.64,201,63.69,200.13Z"/><path class="cls-117" d="M132.1,200.91c0,.66-.52.89-1.06.94a.68.68,0,0,1-.82-.65c0-.72.51-.84,1.07-.85C131.69,200.34,132.13,200.28,132.1,200.91Z"/><path class="cls-118" d="M119.31,200.35c.53,0,.88,0,.85.53,0,.74-.56,1-1.16,1a.65.65,0,0,1-.71-.76C118.37,200.38,118.93,200.37,119.31,200.35Z"/><path class="cls-119" d="M107.67,199.85c-.35-.15-1,.29-1-.47a.88.88,0,0,1,.9-.82.94.94,0,0,1,1.07.94C108.61,200.1,108,199.71,107.67,199.85Z"/><path class="cls-120" d="M94.48,200.39c-.06.7-.2,1.52-1.17,1.51S92,201,92,200.12s.37-1.55,1.26-1.53S94.48,199.46,94.48,200.39Z"/><path class="cls-121" d="M79.07,199.84c-.33-.12-.94.23-1-.34a1,1,0,0,1,1.09-.94.85.85,0,0,1,.88.83C80.06,200.14,79.41,199.7,79.07,199.84Z"/><path class="cls-120" d="M72.73,200.39c-.06.71-.2,1.53-1.17,1.51s-1.29-.86-1.26-1.78.37-1.55,1.25-1.53S72.74,199.46,72.73,200.39Z"/><path class="cls-122" d="M136.83,200.36a4.59,4.59,0,0,1-1.84.26l0-.79a1,1,0,0,1,1.06-1.21c.75,0,.87.6.85,1.22C136.86,200,136.84,200.19,136.83,200.36Z"/><path class="cls-75" d="M83,199a19.16,19.16,0,0,0,3.71,0v1.59c-1.3.4-2.67-.29-4,.27C82.8,200.26,82.5,199.59,83,199Z"/></g></g></svg>